; NON-PLATED HOLES START AT T1
; THROUGH (PLATED) HOLES START AT T100
M48
INCH
T1C0.059055
T2C0.125984
T3C0.157480
T100C0.078740
T101C0.070866
T102C0.039370
T103C0.038000
T104C0.043307
T105C0.027559
%
T1
X003781Y000716
X016781Y000716
X021781Y000716
X012781Y000716
X007781Y000716
T2
X003781Y014716
X025059Y018716
X001781Y007716
X010281Y007716
X025781Y008216
X003781Y003216
X024281Y003216
X001781Y010716
X014781Y010716
X025781Y004716
X024281Y014716
X010281Y010716
X005781Y007716
X018781Y010716
X018781Y007716
X005781Y010716
X021504Y018716
X014781Y007716
T3
X016781Y011716
X016781Y021216
X003781Y011716
X003781Y018716
T100
X013781Y018216
X013781Y020562
X011942Y019370
T101
X011281Y015216
X019281Y015216
T102
X015281Y015216
T103
X009781Y012216
X015781Y000716
X020781Y005216
X008781Y000716
X023781Y007216
X000781Y000716
X006781Y000716
X010281Y003216
X005781Y000716
X004781Y000716
X002781Y000716
X014781Y000716
X022781Y000716
X017781Y000716
X005781Y005216
X024281Y017216
X010781Y000716
X024781Y000716
X020781Y000716
X008781Y012216
X023281Y017216
X022781Y008216
X025281Y017216
X020781Y006216
X019781Y000716
X011781Y000716
X010281Y019716
X023781Y008216
X018781Y000716
X005781Y003216
X022781Y006216
X023781Y006216
X005781Y004216
X022281Y017216
X010281Y004216
X001781Y003216
X007781Y012216
X013781Y000716
X001781Y000716
X001781Y005216
X023781Y005216
X001781Y004216
X021281Y017216
X022781Y005216
X025559Y020216
X010281Y005216
X010281Y020716
X021781Y005216
X009781Y000716
X021004Y020216
X023781Y000716
X022781Y007216
X025781Y000716
T104
X014781Y009216
X001781Y009216
X018781Y009216
X010281Y009216
X005781Y009216
T105
X024281Y010716
X024281Y011716
T00
M30
