G04 MADE WITH FRITZING*
G04 WWW.FRITZING.ORG*
G04 DOUBLE SIDED*
G04 HOLES PLATED*
G04 CONTOUR ON CENTER OF CONTOUR VECTOR*
%ASAXBY*%
%FSLAX23Y23*%
%MOIN*%
%OFA0B0*%
%SFA1.0B1.0*%
%ADD10C,0.075000*%
%ADD11C,0.167480*%
%ADD12C,0.135984*%
%ADD13C,0.069055*%
%ADD14C,0.088000*%
%ADD15C,0.089370*%
%ADD16C,0.120866*%
%ADD17C,0.128740*%
%ADD18C,0.093307*%
%ADD19R,0.001000X0.001000*%
%LNMASK0*%
G90*
G70*
G54D10*
X2428Y1072D03*
X2428Y1172D03*
G54D11*
X1678Y2122D03*
X378Y1872D03*
X1678Y1172D03*
X378Y1172D03*
G54D12*
X2578Y822D03*
X2150Y1872D03*
X2506Y1872D03*
X378Y1472D03*
X178Y1072D03*
X578Y1072D03*
X178Y772D03*
X578Y772D03*
X1028Y1072D03*
X1028Y772D03*
X1478Y1072D03*
X1478Y772D03*
X1878Y1072D03*
X1878Y772D03*
X2428Y1472D03*
X2428Y322D03*
X378Y322D03*
X2578Y472D03*
G54D13*
X2178Y72D03*
X1678Y72D03*
X1278Y72D03*
X778Y72D03*
X378Y72D03*
G54D14*
X2178Y522D03*
X2078Y622D03*
X2078Y522D03*
X2378Y522D03*
X2378Y622D03*
X2378Y722D03*
X2378Y822D03*
X2278Y522D03*
X2278Y622D03*
X2278Y722D03*
X2278Y822D03*
G54D15*
X1528Y1522D03*
G54D16*
X1128Y1522D03*
X1928Y1522D03*
G54D14*
X2578Y72D03*
X2478Y72D03*
X2378Y72D03*
X2278Y72D03*
X2078Y72D03*
X1978Y72D03*
X1878Y72D03*
X1778Y72D03*
X1178Y72D03*
X1078Y72D03*
X978Y72D03*
X878Y72D03*
X1578Y72D03*
X1478Y72D03*
X1378Y72D03*
X678Y72D03*
X578Y72D03*
X478Y72D03*
X578Y522D03*
X578Y422D03*
X578Y322D03*
X1028Y522D03*
X1028Y422D03*
X1028Y322D03*
X178Y522D03*
X178Y422D03*
X178Y322D03*
X1028Y1972D03*
X1028Y2072D03*
G54D17*
X1194Y1937D03*
X1378Y1822D03*
X1378Y2056D03*
G54D14*
X978Y1222D03*
X878Y1222D03*
X778Y1222D03*
X2528Y1722D03*
X2428Y1722D03*
X2328Y1722D03*
X2228Y1722D03*
X2128Y1722D03*
X2556Y2022D03*
X2100Y2022D03*
X278Y72D03*
X178Y72D03*
X78Y72D03*
G54D18*
X1878Y922D03*
X1478Y922D03*
X1028Y922D03*
X578Y922D03*
X178Y922D03*
G54D19*
X2391Y1209D02*
X2464Y1209D01*
X2391Y1208D02*
X2465Y1208D01*
X2391Y1207D02*
X2465Y1207D01*
X2391Y1206D02*
X2465Y1206D01*
X2391Y1205D02*
X2465Y1205D01*
X2391Y1204D02*
X2465Y1204D01*
X2391Y1203D02*
X2465Y1203D01*
X2391Y1202D02*
X2465Y1202D01*
X2391Y1201D02*
X2465Y1201D01*
X2391Y1200D02*
X2465Y1200D01*
X2391Y1199D02*
X2465Y1199D01*
X2391Y1198D02*
X2465Y1198D01*
X2391Y1197D02*
X2465Y1197D01*
X2391Y1196D02*
X2465Y1196D01*
X2391Y1195D02*
X2465Y1195D01*
X2391Y1194D02*
X2465Y1194D01*
X2391Y1193D02*
X2465Y1193D01*
X2391Y1192D02*
X2465Y1192D01*
X2391Y1191D02*
X2465Y1191D01*
X2391Y1190D02*
X2465Y1190D01*
X2391Y1189D02*
X2465Y1189D01*
X2391Y1188D02*
X2465Y1188D01*
X2391Y1187D02*
X2465Y1187D01*
X2391Y1186D02*
X2465Y1186D01*
X2391Y1185D02*
X2465Y1185D01*
X2391Y1184D02*
X2465Y1184D01*
X2391Y1183D02*
X2465Y1183D01*
X2391Y1182D02*
X2465Y1182D01*
X2391Y1181D02*
X2465Y1181D01*
X2391Y1180D02*
X2423Y1180D01*
X2432Y1180D02*
X2465Y1180D01*
X2391Y1179D02*
X2422Y1179D01*
X2433Y1179D02*
X2465Y1179D01*
X2391Y1178D02*
X2421Y1178D01*
X2434Y1178D02*
X2465Y1178D01*
X2391Y1177D02*
X2420Y1177D01*
X2435Y1177D02*
X2465Y1177D01*
X2391Y1176D02*
X2419Y1176D01*
X2436Y1176D02*
X2465Y1176D01*
X2391Y1175D02*
X2419Y1175D01*
X2436Y1175D02*
X2465Y1175D01*
X2391Y1174D02*
X2418Y1174D01*
X2437Y1174D02*
X2465Y1174D01*
X2391Y1173D02*
X2418Y1173D01*
X2437Y1173D02*
X2465Y1173D01*
X2391Y1172D02*
X2418Y1172D01*
X2437Y1172D02*
X2465Y1172D01*
X2391Y1171D02*
X2418Y1171D01*
X2437Y1171D02*
X2465Y1171D01*
X2391Y1170D02*
X2418Y1170D01*
X2437Y1170D02*
X2465Y1170D01*
X2391Y1169D02*
X2419Y1169D01*
X2436Y1169D02*
X2465Y1169D01*
X2391Y1168D02*
X2419Y1168D01*
X2436Y1168D02*
X2465Y1168D01*
X2391Y1167D02*
X2420Y1167D01*
X2435Y1167D02*
X2465Y1167D01*
X2391Y1166D02*
X2420Y1166D01*
X2435Y1166D02*
X2465Y1166D01*
X2391Y1165D02*
X2421Y1165D01*
X2434Y1165D02*
X2465Y1165D01*
X2391Y1164D02*
X2423Y1164D01*
X2432Y1164D02*
X2465Y1164D01*
X2391Y1163D02*
X2465Y1163D01*
X2391Y1162D02*
X2465Y1162D01*
X2391Y1161D02*
X2465Y1161D01*
X2391Y1160D02*
X2465Y1160D01*
X2391Y1159D02*
X2465Y1159D01*
X2391Y1158D02*
X2465Y1158D01*
X2391Y1157D02*
X2465Y1157D01*
X2391Y1156D02*
X2465Y1156D01*
X2391Y1155D02*
X2465Y1155D01*
X2391Y1154D02*
X2465Y1154D01*
X2391Y1153D02*
X2465Y1153D01*
X2391Y1152D02*
X2465Y1152D01*
X2391Y1151D02*
X2465Y1151D01*
X2391Y1150D02*
X2465Y1150D01*
X2391Y1149D02*
X2465Y1149D01*
X2391Y1148D02*
X2465Y1148D01*
X2391Y1147D02*
X2465Y1147D01*
X2391Y1146D02*
X2465Y1146D01*
X2391Y1145D02*
X2465Y1145D01*
X2391Y1144D02*
X2465Y1144D01*
X2391Y1143D02*
X2465Y1143D01*
X2391Y1142D02*
X2465Y1142D01*
X2391Y1141D02*
X2465Y1141D01*
X2391Y1140D02*
X2465Y1140D01*
X2391Y1139D02*
X2465Y1139D01*
X2391Y1138D02*
X2465Y1138D01*
X2391Y1137D02*
X2465Y1137D01*
X2391Y1136D02*
X2465Y1136D01*
X2391Y1135D02*
X2465Y1135D01*
D02*
G04 End of Mask0*
M02*