G04 MADE WITH FRITZING*
G04 WWW.FRITZING.ORG*
G04 DOUBLE SIDED*
G04 HOLES PLATED*
G04 CONTOUR ON CENTER OF CONTOUR VECTOR*
%ASAXBY*%
%FSLAX23Y23*%
%MOIN*%
%OFA0B0*%
%SFA1.0B1.0*%
%ADD10C,0.065000*%
%ADD11C,0.078000*%
%ADD12C,0.079370*%
%ADD13C,0.110866*%
%ADD14C,0.118740*%
%ADD15C,0.083307*%
%ADD16C,0.048000*%
%ADD17C,0.024000*%
%ADD18R,0.001000X0.001000*%
%LNCOPPER1*%
G90*
G70*
G54D10*
X2428Y1072D03*
X2428Y1172D03*
X2428Y1072D03*
X2428Y1172D03*
G54D11*
X2178Y522D03*
X2078Y622D03*
X2078Y522D03*
X2378Y522D03*
X2378Y622D03*
X2378Y722D03*
X2378Y822D03*
X2278Y522D03*
X2278Y622D03*
X2278Y722D03*
X2278Y822D03*
G54D12*
X1528Y1522D03*
G54D13*
X1128Y1522D03*
X1928Y1522D03*
G54D11*
X2578Y72D03*
X2478Y72D03*
X2378Y72D03*
X2278Y72D03*
X2078Y72D03*
X1978Y72D03*
X1878Y72D03*
X1778Y72D03*
X1178Y72D03*
X1078Y72D03*
X978Y72D03*
X878Y72D03*
X1578Y72D03*
X1478Y72D03*
X1378Y72D03*
X678Y72D03*
X578Y72D03*
X478Y72D03*
X578Y522D03*
X578Y422D03*
X578Y322D03*
X1028Y522D03*
X1028Y422D03*
X1028Y322D03*
X178Y522D03*
X178Y422D03*
X178Y322D03*
X1028Y1972D03*
X1028Y2072D03*
G54D14*
X1194Y1937D03*
X1378Y1822D03*
X1378Y2056D03*
G54D11*
X978Y1222D03*
X878Y1222D03*
X778Y1222D03*
X2528Y1722D03*
X2428Y1722D03*
X2328Y1722D03*
X2228Y1722D03*
X2128Y1722D03*
X2556Y2022D03*
X2100Y2022D03*
X278Y72D03*
X178Y72D03*
X78Y72D03*
G54D15*
X1878Y922D03*
X1478Y922D03*
X1028Y922D03*
X578Y922D03*
X178Y922D03*
G54D16*
X1129Y1420D02*
X1129Y1464D01*
D02*
X2078Y1420D02*
X1129Y1420D01*
D02*
X2078Y663D02*
X2078Y1420D01*
D02*
X1378Y921D02*
X1378Y1322D01*
D02*
X1378Y1322D02*
X879Y1322D01*
D02*
X879Y1322D02*
X879Y1263D01*
D02*
X1434Y921D02*
X1378Y921D01*
D02*
X2127Y1620D02*
X2278Y1620D01*
D02*
X2278Y1620D02*
X2278Y863D01*
D02*
X2128Y1680D02*
X2127Y1620D01*
D02*
X1317Y2065D02*
X1277Y2070D01*
D02*
X1069Y1963D02*
X1134Y1950D01*
D02*
X2180Y1522D02*
X1986Y1522D01*
D02*
X2178Y563D02*
X2180Y1522D01*
D02*
X1529Y1420D02*
X1529Y1480D01*
D02*
X1129Y1420D02*
X1529Y1420D01*
D02*
X1129Y1464D02*
X1129Y1420D01*
D02*
X1277Y2070D02*
X1317Y2065D01*
D02*
X778Y1522D02*
X778Y2070D01*
D02*
X778Y2070D02*
X1277Y2070D01*
D02*
X1071Y1522D02*
X778Y1522D01*
D02*
X1779Y1922D02*
X2092Y1742D01*
D02*
X1256Y1936D02*
X1779Y1922D01*
D02*
X1277Y2070D02*
X778Y2070D01*
D02*
X778Y2070D02*
X778Y1263D01*
D02*
X1277Y2073D02*
X1317Y2066D01*
D02*
X1069Y2072D02*
X1277Y2073D01*
G54D17*
D02*
X2348Y722D02*
X2308Y722D01*
D02*
X2348Y622D02*
X2308Y622D01*
G54D16*
D02*
X2337Y522D02*
X2319Y522D01*
D02*
X2337Y822D02*
X2319Y822D01*
D02*
X2278Y421D02*
X1069Y422D01*
D02*
X2278Y480D02*
X2278Y421D01*
D02*
X987Y522D02*
X619Y522D01*
D02*
X378Y472D02*
X218Y432D01*
D02*
X987Y422D02*
X619Y422D01*
D02*
X538Y432D02*
X378Y472D01*
D02*
X1978Y522D02*
X1069Y522D01*
D02*
X1978Y923D02*
X1978Y522D01*
D02*
X1922Y922D02*
X1978Y923D01*
D02*
X2037Y522D02*
X1069Y522D01*
G54D18*
X2396Y1204D02*
X2459Y1204D01*
X2396Y1203D02*
X2460Y1203D01*
X2396Y1202D02*
X2460Y1202D01*
X2396Y1201D02*
X2460Y1201D01*
X2396Y1200D02*
X2460Y1200D01*
X2396Y1199D02*
X2460Y1199D01*
X2396Y1198D02*
X2460Y1198D01*
X2396Y1197D02*
X2460Y1197D01*
X2396Y1196D02*
X2460Y1196D01*
X2396Y1195D02*
X2460Y1195D01*
X2396Y1194D02*
X2460Y1194D01*
X2396Y1193D02*
X2460Y1193D01*
X2396Y1192D02*
X2460Y1192D01*
X2396Y1191D02*
X2460Y1191D01*
X2396Y1190D02*
X2460Y1190D01*
X2396Y1189D02*
X2460Y1189D01*
X2396Y1188D02*
X2460Y1188D01*
X2396Y1187D02*
X2460Y1187D01*
X2396Y1186D02*
X2460Y1186D01*
X2396Y1185D02*
X2423Y1185D01*
X2432Y1185D02*
X2460Y1185D01*
X2396Y1184D02*
X2420Y1184D01*
X2435Y1184D02*
X2460Y1184D01*
X2396Y1183D02*
X2419Y1183D01*
X2436Y1183D02*
X2460Y1183D01*
X2396Y1182D02*
X2418Y1182D01*
X2437Y1182D02*
X2460Y1182D01*
X2396Y1181D02*
X2417Y1181D01*
X2438Y1181D02*
X2460Y1181D01*
X2396Y1180D02*
X2416Y1180D01*
X2439Y1180D02*
X2460Y1180D01*
X2396Y1179D02*
X2415Y1179D01*
X2440Y1179D02*
X2460Y1179D01*
X2396Y1178D02*
X2415Y1178D01*
X2440Y1178D02*
X2460Y1178D01*
X2396Y1177D02*
X2414Y1177D01*
X2441Y1177D02*
X2460Y1177D01*
X2396Y1176D02*
X2414Y1176D01*
X2441Y1176D02*
X2460Y1176D01*
X2396Y1175D02*
X2414Y1175D01*
X2441Y1175D02*
X2460Y1175D01*
X2396Y1174D02*
X2413Y1174D01*
X2442Y1174D02*
X2460Y1174D01*
X2396Y1173D02*
X2413Y1173D01*
X2442Y1173D02*
X2460Y1173D01*
X2396Y1172D02*
X2413Y1172D01*
X2442Y1172D02*
X2460Y1172D01*
X2396Y1171D02*
X2413Y1171D01*
X2442Y1171D02*
X2460Y1171D01*
X2396Y1170D02*
X2413Y1170D01*
X2442Y1170D02*
X2460Y1170D01*
X2396Y1169D02*
X2414Y1169D01*
X2441Y1169D02*
X2460Y1169D01*
X2396Y1168D02*
X2414Y1168D01*
X2441Y1168D02*
X2460Y1168D01*
X2396Y1167D02*
X2414Y1167D01*
X2441Y1167D02*
X2460Y1167D01*
X2396Y1166D02*
X2415Y1166D01*
X2440Y1166D02*
X2460Y1166D01*
X2396Y1165D02*
X2415Y1165D01*
X2440Y1165D02*
X2460Y1165D01*
X2396Y1164D02*
X2416Y1164D01*
X2439Y1164D02*
X2460Y1164D01*
X2396Y1163D02*
X2417Y1163D01*
X2438Y1163D02*
X2460Y1163D01*
X2396Y1162D02*
X2417Y1162D01*
X2438Y1162D02*
X2460Y1162D01*
X2396Y1161D02*
X2419Y1161D01*
X2436Y1161D02*
X2460Y1161D01*
X2396Y1160D02*
X2420Y1160D01*
X2435Y1160D02*
X2460Y1160D01*
X2396Y1159D02*
X2423Y1159D01*
X2433Y1159D02*
X2460Y1159D01*
X2396Y1158D02*
X2460Y1158D01*
X2396Y1157D02*
X2460Y1157D01*
X2396Y1156D02*
X2460Y1156D01*
X2396Y1155D02*
X2460Y1155D01*
X2396Y1154D02*
X2460Y1154D01*
X2396Y1153D02*
X2460Y1153D01*
X2396Y1152D02*
X2460Y1152D01*
X2396Y1151D02*
X2460Y1151D01*
X2396Y1150D02*
X2460Y1150D01*
X2396Y1149D02*
X2460Y1149D01*
X2396Y1148D02*
X2460Y1148D01*
X2396Y1147D02*
X2460Y1147D01*
X2396Y1146D02*
X2460Y1146D01*
X2396Y1145D02*
X2460Y1145D01*
X2396Y1144D02*
X2460Y1144D01*
X2396Y1143D02*
X2460Y1143D01*
X2396Y1142D02*
X2460Y1142D01*
X2396Y1141D02*
X2460Y1141D01*
X2396Y1140D02*
X2460Y1140D01*
D02*
G04 End of Copper1*
M02*