G04 MADE WITH FRITZING*
G04 WWW.FRITZING.ORG*
G04 DOUBLE SIDED*
G04 HOLES PLATED*
G04 CONTOUR ON CENTER OF CONTOUR VECTOR*
%ASAXBY*%
%FSLAX23Y23*%
%MOIN*%
%OFA0B0*%
%SFA1.0B1.0*%
%ADD10C,0.065000*%
%ADD11C,0.078000*%
%ADD12C,0.079370*%
%ADD13C,0.110866*%
%ADD14C,0.118740*%
%ADD15C,0.083307*%
%ADD16C,0.048000*%
%ADD17C,0.024000*%
%ADD18R,0.001000X0.001000*%
%LNCOPPER0*%
G90*
G70*
G54D10*
X2428Y1072D03*
X2428Y1172D03*
G54D11*
X2178Y522D03*
X2078Y622D03*
X2078Y522D03*
X2378Y522D03*
X2378Y622D03*
X2378Y722D03*
X2378Y822D03*
X2278Y522D03*
X2278Y622D03*
X2278Y722D03*
X2278Y822D03*
G54D12*
X1528Y1522D03*
G54D13*
X1128Y1522D03*
X1928Y1522D03*
G54D11*
X2578Y72D03*
X2478Y72D03*
X2378Y72D03*
X2278Y72D03*
X2078Y72D03*
X1978Y72D03*
X1878Y72D03*
X1778Y72D03*
X1178Y72D03*
X1078Y72D03*
X978Y72D03*
X878Y72D03*
X1578Y72D03*
X1478Y72D03*
X1378Y72D03*
X678Y72D03*
X578Y72D03*
X478Y72D03*
X578Y522D03*
X578Y422D03*
X578Y322D03*
X1028Y522D03*
X1028Y422D03*
X1028Y322D03*
X178Y522D03*
X178Y422D03*
X178Y322D03*
X1028Y1972D03*
X1028Y2072D03*
G54D14*
X1194Y1937D03*
X1378Y1822D03*
X1378Y2056D03*
G54D11*
X978Y1222D03*
X878Y1222D03*
X778Y1222D03*
X2528Y1722D03*
X2428Y1722D03*
X2328Y1722D03*
X2228Y1722D03*
X2128Y1722D03*
X2556Y2022D03*
X2100Y2022D03*
X278Y72D03*
X178Y72D03*
X78Y72D03*
G54D15*
X1878Y922D03*
X1478Y922D03*
X1028Y922D03*
X578Y922D03*
X178Y922D03*
G54D16*
X2577Y1620D02*
X2577Y1322D01*
D02*
X2577Y1322D02*
X978Y1322D01*
D02*
X2546Y1685D02*
X2577Y1620D01*
D02*
X978Y1322D02*
X978Y1263D01*
D02*
X978Y1821D02*
X1317Y1822D01*
D02*
X978Y1263D02*
X978Y1821D01*
D02*
X2577Y1620D02*
X2577Y1171D01*
D02*
X2577Y1171D02*
X2464Y1171D01*
D02*
X2546Y1685D02*
X2577Y1620D01*
D02*
X2579Y1621D02*
X2547Y1685D01*
D02*
X2577Y1023D02*
X2579Y1621D01*
D02*
X2478Y970D02*
X2577Y1023D01*
D02*
X2479Y520D02*
X2478Y970D01*
D02*
X2419Y521D02*
X2479Y520D01*
D02*
X2078Y1072D02*
X2392Y1072D01*
D02*
X2078Y663D02*
X2078Y1072D01*
G54D17*
D02*
X77Y321D02*
X148Y322D01*
D02*
X77Y721D02*
X77Y321D01*
D02*
X77Y922D02*
X77Y721D01*
D02*
X145Y922D02*
X77Y922D01*
D02*
X879Y922D02*
X995Y922D01*
D02*
X879Y321D02*
X879Y922D01*
D02*
X998Y322D02*
X879Y321D01*
D02*
X178Y102D02*
X178Y292D01*
D02*
X578Y102D02*
X578Y292D01*
G54D16*
D02*
X2278Y113D02*
X2278Y480D01*
D02*
X277Y573D02*
X215Y541D01*
D02*
X479Y573D02*
X277Y573D01*
D02*
X542Y541D02*
X479Y573D01*
D02*
X1978Y522D02*
X1978Y923D01*
D02*
X1978Y923D02*
X1922Y922D01*
D02*
X1879Y521D02*
X1978Y522D01*
D02*
X2037Y522D02*
X1879Y521D01*
D02*
X1578Y923D02*
X1522Y922D01*
D02*
X1578Y71D02*
X1578Y923D01*
D02*
X1519Y71D02*
X1578Y71D01*
G54D17*
D02*
X178Y72D02*
X79Y72D01*
D02*
X148Y72D02*
X108Y72D01*
D02*
X248Y72D02*
X208Y72D01*
D02*
X679Y923D02*
X611Y922D01*
D02*
X679Y321D02*
X679Y923D01*
D02*
X608Y322D02*
X679Y321D01*
D02*
X548Y72D02*
X508Y72D01*
D02*
X608Y72D02*
X648Y72D01*
D02*
X948Y72D02*
X908Y72D01*
D02*
X1048Y72D02*
X1008Y72D01*
D02*
X1148Y72D02*
X1108Y72D01*
G54D16*
D02*
X1437Y72D02*
X1419Y72D01*
D02*
X1537Y72D02*
X1519Y72D01*
D02*
X1837Y72D02*
X1819Y72D01*
D02*
X1937Y72D02*
X1919Y72D01*
D02*
X2037Y72D02*
X2019Y72D01*
D02*
X2078Y113D02*
X2078Y480D01*
D02*
X2337Y72D02*
X2319Y72D01*
D02*
X2437Y72D02*
X2419Y72D01*
D02*
X2537Y72D02*
X2519Y72D01*
G54D17*
D02*
X2078Y592D02*
X2078Y552D01*
G54D18*
X2396Y1204D02*
X2459Y1204D01*
X2396Y1203D02*
X2460Y1203D01*
X2396Y1202D02*
X2460Y1202D01*
X2396Y1201D02*
X2460Y1201D01*
X2396Y1200D02*
X2460Y1200D01*
X2396Y1199D02*
X2460Y1199D01*
X2396Y1198D02*
X2460Y1198D01*
X2396Y1197D02*
X2460Y1197D01*
X2396Y1196D02*
X2460Y1196D01*
X2396Y1195D02*
X2460Y1195D01*
X2396Y1194D02*
X2460Y1194D01*
X2396Y1193D02*
X2460Y1193D01*
X2396Y1192D02*
X2460Y1192D01*
X2396Y1191D02*
X2460Y1191D01*
X2396Y1190D02*
X2460Y1190D01*
X2396Y1189D02*
X2460Y1189D01*
X2396Y1188D02*
X2460Y1188D01*
X2396Y1187D02*
X2460Y1187D01*
X2396Y1186D02*
X2460Y1186D01*
X2396Y1185D02*
X2423Y1185D01*
X2432Y1185D02*
X2460Y1185D01*
X2396Y1184D02*
X2420Y1184D01*
X2435Y1184D02*
X2460Y1184D01*
X2396Y1183D02*
X2419Y1183D01*
X2436Y1183D02*
X2460Y1183D01*
X2396Y1182D02*
X2418Y1182D01*
X2437Y1182D02*
X2460Y1182D01*
X2396Y1181D02*
X2417Y1181D01*
X2438Y1181D02*
X2460Y1181D01*
X2396Y1180D02*
X2416Y1180D01*
X2439Y1180D02*
X2460Y1180D01*
X2396Y1179D02*
X2415Y1179D01*
X2440Y1179D02*
X2460Y1179D01*
X2396Y1178D02*
X2415Y1178D01*
X2440Y1178D02*
X2460Y1178D01*
X2396Y1177D02*
X2414Y1177D01*
X2441Y1177D02*
X2460Y1177D01*
X2396Y1176D02*
X2414Y1176D01*
X2441Y1176D02*
X2460Y1176D01*
X2396Y1175D02*
X2414Y1175D01*
X2441Y1175D02*
X2460Y1175D01*
X2396Y1174D02*
X2413Y1174D01*
X2442Y1174D02*
X2460Y1174D01*
X2396Y1173D02*
X2413Y1173D01*
X2442Y1173D02*
X2460Y1173D01*
X2396Y1172D02*
X2413Y1172D01*
X2442Y1172D02*
X2460Y1172D01*
X2396Y1171D02*
X2413Y1171D01*
X2442Y1171D02*
X2460Y1171D01*
X2396Y1170D02*
X2413Y1170D01*
X2442Y1170D02*
X2460Y1170D01*
X2396Y1169D02*
X2414Y1169D01*
X2441Y1169D02*
X2460Y1169D01*
X2396Y1168D02*
X2414Y1168D01*
X2441Y1168D02*
X2460Y1168D01*
X2396Y1167D02*
X2414Y1167D01*
X2441Y1167D02*
X2460Y1167D01*
X2396Y1166D02*
X2415Y1166D01*
X2440Y1166D02*
X2460Y1166D01*
X2396Y1165D02*
X2415Y1165D01*
X2440Y1165D02*
X2460Y1165D01*
X2396Y1164D02*
X2416Y1164D01*
X2439Y1164D02*
X2460Y1164D01*
X2396Y1163D02*
X2417Y1163D01*
X2438Y1163D02*
X2460Y1163D01*
X2396Y1162D02*
X2417Y1162D01*
X2438Y1162D02*
X2460Y1162D01*
X2396Y1161D02*
X2419Y1161D01*
X2436Y1161D02*
X2460Y1161D01*
X2396Y1160D02*
X2420Y1160D01*
X2435Y1160D02*
X2460Y1160D01*
X2396Y1159D02*
X2423Y1159D01*
X2433Y1159D02*
X2460Y1159D01*
X2396Y1158D02*
X2460Y1158D01*
X2396Y1157D02*
X2460Y1157D01*
X2396Y1156D02*
X2460Y1156D01*
X2396Y1155D02*
X2460Y1155D01*
X2396Y1154D02*
X2460Y1154D01*
X2396Y1153D02*
X2460Y1153D01*
X2396Y1152D02*
X2460Y1152D01*
X2396Y1151D02*
X2460Y1151D01*
X2396Y1150D02*
X2460Y1150D01*
X2396Y1149D02*
X2460Y1149D01*
X2396Y1148D02*
X2460Y1148D01*
X2396Y1147D02*
X2460Y1147D01*
X2396Y1146D02*
X2460Y1146D01*
X2396Y1145D02*
X2460Y1145D01*
X2396Y1144D02*
X2460Y1144D01*
X2396Y1143D02*
X2460Y1143D01*
X2396Y1142D02*
X2460Y1142D01*
X2396Y1141D02*
X2460Y1141D01*
X2396Y1140D02*
X2460Y1140D01*
D02*
G04 End of Copper0*
M02*