; NON-PLATED HOLES START AT T1
; THROUGH (PLATED) HOLES START AT T100
M48
INCH
T1C0.153543
T2C0.188976
T3C0.248032
T4C0.106299
T5C0.212598
T6C0.236220
T7C0.043307
T8C0.216536
T9C0.173228
T10C0.181102
T11C0.141732
T12C0.177165
T13C0.055118
T14C0.192913
T15C0.145669
T16C0.228346
T17C0.047244
T18C0.035433
T19C0.066929
T20C0.051181
T21C0.185039
T22C0.019685
T23C0.204724
T24C0.224410
T25C0.129921
T26C0.102362
T27C0.220472
T28C0.015748
T29C0.110236
T30C0.059055
T31C0.062992
T32C0.232284
T33C0.082677
T34C0.161417
T35C0.208662
T36C0.137795
T37C0.196850
T38C0.011811
T39C0.149606
T40C0.169291
T41C0.240158
T42C0.114173
T43C0.070866
T44C0.039370
T45C0.027559
T46C0.118110
T47C0.098425
T48C0.125984
T49C0.090551
T50C0.244094
T51C0.007874
T52C0.023622
T53C0.094488
T54C0.074803
T55C0.078740
T56C0.157480
T57C0.086614
T58C0.165354
T59C0.122047
T60C0.133858
T61C0.200788
T62C0.031496
T100C0.153543
T101C0.125984
T102C0.027559
T103C0.106299
T104C0.062992
T105C0.133858
T106C0.078740
T107C0.110236
T108C0.188977
T109C0.185039
T110C0.035433
T111C0.173228
T112C0.051181
T113C0.169291
T114C0.122047
T115C0.114173
T116C0.248031
T117C0.007874
T118C0.232283
T119C0.059055
T120C0.043307
T121C0.086614
T122C0.236221
T123C0.141732
T124C0.137795
T125C0.220473
T126C0.212599
T127C0.070866
T128C0.098425
T129C0.039370
T130C0.228347
T131C0.102362
T132C0.094488
T133C0.192913
T134C0.019685
T135C0.118110
T136C0.074803
T137C0.015748
T138C0.224409
T139C0.082677
T140C0.157480
T141C0.216535
T142C0.031496
T143C0.161417
T144C0.165354
T145C0.145669
T146C0.208661
T147C0.181103
T148C0.200787
T149C0.023622
T150C0.090551
T151C0.244095
T152C0.047244
T153C0.011811
T154C0.204725
T155C0.066929
T156C0.177165
T157C0.196851
T158C0.129921
T159C0.055118
T160C0.149606
T161C0.240157
%
T1
X019527Y007524
T2
X021527Y011024
T3
X034527Y004024
T4
X016527Y004024
T5
X013527Y015524
T6
X025527Y004024
T7
X009527Y000524
T8
X016527Y015524
T9
X011527Y011024
T10
X016527Y011024
T11
X013527Y007524
T12
X014027Y011024
T13
X012527Y000524
T14
X024027Y011024
T15
X015527Y007524
T16
X025527Y015525
T17
X010527Y000524
T18
X007527Y000524
T19
X002527Y004024
T20
X011527Y000524
T21
X019027Y011024
T22
X003527Y000524
T23
X007527Y015524
T24
X022527Y015524
T25
X007527Y007524
T26
X014527Y004024
T27
X019527Y015524
T28
X002527Y000524
T29
X018527Y004024
T30
X014527Y000524
X021527Y033024
X018527Y033024
X019527Y033024
X022527Y033024
X017527Y000524
X017527Y033024
X015527Y000524
X023527Y000524
X016527Y033024
X018527Y000524
X019527Y000524
X023527Y033024
X020527Y033024
X021527Y000524
X013527Y000524
X015527Y033024
X022527Y000524
X016527Y000524
X020527Y000524
X014527Y033024
T31
X001527Y004024
T32
X028527Y015524
T33
X006527Y004024
T34
X004027Y011024
T35
X010527Y015524
T36
X011527Y007524
T37
X001527Y015524
T38
X001527Y000524
T39
X017527Y007524
T40
X009027Y011024
T41
X028527Y004024
T42
X020527Y004024
T43
X003527Y004024
T44
X008527Y000524
T45
X005527Y000524
T46
X001527Y007524
T47
X012527Y004024
T48
X005527Y007524
T49
X009527Y004024
T50
X031527Y004024
T51
X000527Y000524
T52
X004527Y000524
T53
X011027Y004024
T54
X004527Y004024
T55
X005527Y004024
T56
X001527Y011024
T57
X008027Y004024
T58
X006527Y011024
T59
X003527Y007524
T60
X009527Y007524
T61
X004527Y015524
T62
X006527Y000524
T100
X019527Y027524
T101
X005527Y027524
T102
X005527Y033024
T103
X016527Y030524
T104
X001527Y030524
T105
X009527Y027524
T106
X005527Y030524
T107
X018527Y030524
T108
X021527Y023524
T109
X019027Y023524
T110
X007527Y033024
T111
X011527Y023524
T112
X011527Y033024
T113
X009027Y023524
T114
X003527Y027524
T115
X020527Y030524
T116
X034527Y027524
T117
X000527Y033024
T118
X028527Y019524
T119
X013527Y033024
T120
X009527Y033024
T121
X008027Y030524
T122
X025527Y027524
T123
X013527Y027524
T124
X011527Y027524
T125
X019527Y019524
T126
X013527Y019524
T127
X003527Y030524
T128
X012527Y030524
T129
X008527Y033024
T130
X025527Y019524
T131
X014527Y030524
T132
X011027Y030524
T133
X024027Y023524
T134
X003527Y033024
T135
X001527Y027524
T136
X004527Y030524
T137
X002527Y033024
T138
X022527Y019524
T139
X006527Y030524
T140
X001527Y023524
T141
X016527Y019524
T142
X006527Y033024
T143
X004027Y023524
T144
X006527Y023524
T145
X015527Y027524
T146
X010527Y019524
T147
X016527Y023524
T148
X004527Y019524
T149
X004527Y033024
T150
X009527Y030524
T151
X031527Y027524
T152
X010527Y033024
T153
X001527Y033024
T154
X007527Y019524
T155
X002527Y030524
T156
X014027Y023524
T157
X001527Y019524
T158
X007527Y027524
T159
X012527Y033024
T160
X017527Y027524
T161
X028527Y027524
T00
M30
