G04 MADE WITH FRITZING*
G04 WWW.FRITZING.ORG*
G04 DOUBLE SIDED*
G04 HOLES PLATED*
G04 CONTOUR ON CENTER OF CONTOUR VECTOR*
%ASAXBY*%
%FSLAX23Y23*%
%MOIN*%
%OFA0B0*%
%SFA1.0B1.0*%
%ADD10C,0.297401*%
%ADD11C,0.293465*%
%ADD12C,0.289527*%
%ADD13C,0.285591*%
%ADD14C,0.281653*%
%ADD15C,0.277717*%
%ADD16C,0.273779*%
%ADD17C,0.269843*%
%ADD18C,0.265905*%
%ADD19C,0.261969*%
%ADD20C,0.258031*%
%ADD21C,0.226535*%
%ADD22C,0.230473*%
%ADD23C,0.198976*%
%ADD24C,0.238347*%
%ADD25C,0.234409*%
%ADD26C,0.242283*%
%ADD27C,0.222598*%
%ADD28C,0.218661*%
%ADD29C,0.202913*%
%ADD30C,0.195039*%
%ADD31C,0.191102*%
%ADD32C,0.187165*%
%ADD33C,0.183228*%
%ADD34C,0.179291*%
%ADD35C,0.254095*%
%ADD36C,0.214724*%
%ADD37C,0.175354*%
%ADD38C,0.250157*%
%ADD39C,0.210787*%
%ADD40C,0.171417*%
%ADD41C,0.246221*%
%ADD42C,0.206850*%
%ADD43C,0.167480*%
%ADD44C,0.163543*%
%ADD45C,0.159606*%
%ADD46C,0.155669*%
%ADD47C,0.151732*%
%ADD48C,0.147795*%
%ADD49C,0.143858*%
%ADD50C,0.139921*%
%ADD51C,0.135984*%
%ADD52C,0.100551*%
%ADD53C,0.096614*%
%ADD54C,0.092677*%
%ADD55C,0.080866*%
%ADD56C,0.088740*%
%ADD57C,0.084803*%
%ADD58C,0.072992*%
%ADD59C,0.076929*%
%ADD60C,0.069055*%
%ADD61C,0.065118*%
%ADD62C,0.061181*%
%ADD63C,0.057244*%
%ADD64C,0.120236*%
%ADD65C,0.112362*%
%ADD66C,0.124173*%
%ADD67C,0.116299*%
%ADD68C,0.104488*%
%ADD69C,0.218662*%
%ADD70C,0.128110*%
%ADD71C,0.258032*%
%ADD72C,0.242284*%
%ADD73C,0.254094*%
%ADD74C,0.238346*%
%ADD75C,0.132047*%
%ADD76C,0.210788*%
%ADD77C,0.250158*%
%ADD78C,0.234410*%
%ADD79C,0.246220*%
%ADD80C,0.230472*%
%ADD81C,0.108425*%
%ADD82C,0.226536*%
%ADD83C,0.021811*%
%ADD84C,0.017874*%
%ADD85C,0.033622*%
%ADD86C,0.037559*%
%ADD87C,0.025748*%
%ADD88C,0.029685*%
%ADD89C,0.045433*%
%ADD90C,0.041496*%
%ADD91C,0.053307*%
%ADD92C,0.049370*%
%LNMASK0*%
G90*
G70*
G54D10*
X3453Y2752D03*
G54D11*
X3153Y2752D03*
G54D12*
X2853Y2752D03*
G54D13*
X2553Y2752D03*
G54D14*
X2853Y1952D03*
G54D15*
X2553Y1952D03*
G54D16*
X2253Y1952D03*
G54D17*
X1953Y1952D03*
G54D18*
X1653Y1952D03*
G54D19*
X1353Y1952D03*
G54D20*
X1053Y1952D03*
G54D21*
X1403Y2352D03*
G54D22*
X1653Y2352D03*
G54D23*
X1753Y2752D03*
G54D24*
X2153Y2352D03*
G54D25*
X1903Y2352D03*
G54D26*
X2403Y2352D03*
G54D27*
X1153Y2352D03*
G54D28*
X903Y2352D03*
G54D29*
X1953Y2752D03*
G54D30*
X1553Y2752D03*
G54D31*
X1353Y2752D03*
G54D32*
X1153Y2752D03*
G54D33*
X953Y2752D03*
G54D34*
X753Y2752D03*
G54D35*
X753Y1952D03*
G54D36*
X653Y2352D03*
G54D37*
X553Y2752D03*
G54D38*
X453Y1952D03*
G54D39*
X403Y2352D03*
G54D40*
X353Y2752D03*
G54D41*
X153Y1952D03*
G54D42*
X153Y2352D03*
G54D43*
X153Y2752D03*
G54D44*
X2053Y3052D03*
G54D45*
X1853Y3052D03*
G54D46*
X1653Y3052D03*
G54D47*
X1453Y3052D03*
G54D48*
X1253Y3052D03*
G54D49*
X1103Y3052D03*
G54D50*
X953Y3052D03*
G54D51*
X803Y3052D03*
G54D52*
X653Y3052D03*
G54D53*
X553Y3052D03*
G54D52*
X453Y3052D03*
G54D53*
X353Y3052D03*
G54D54*
X253Y3052D03*
G54D53*
X153Y3052D03*
G54D55*
X1053Y3302D03*
G54D56*
X1253Y3302D03*
G54D57*
X1153Y3302D03*
G54D58*
X653Y3302D03*
G54D59*
X553Y3302D03*
G54D58*
X453Y3302D03*
G54D60*
X353Y3302D03*
G54D61*
X253Y3302D03*
G54D62*
X153Y3302D03*
G54D63*
X53Y3302D03*
G54D57*
X753Y3302D03*
G54D54*
X953Y3302D03*
G54D56*
X853Y3302D03*
G54D57*
X1353Y3302D03*
G54D64*
X1853Y402D03*
G54D65*
X1453Y402D03*
G54D52*
X953Y402D03*
G54D49*
X953Y752D03*
G54D33*
X1153Y1102D03*
G54D27*
X1353Y1552D03*
G54D60*
X2253Y52D03*
G54D66*
X2053Y402D03*
G54D67*
X1653Y402D03*
G54D68*
X1103Y402D03*
G54D50*
X753Y752D03*
G54D34*
X903Y1102D03*
G54D69*
X1053Y1552D03*
G54D60*
X2353Y52D03*
X2153Y3302D03*
X2253Y3302D03*
X2353Y3302D03*
G54D70*
X153Y752D03*
G54D43*
X153Y1102D03*
G54D42*
X153Y1552D03*
G54D60*
X1453Y52D03*
G54D71*
X3453Y402D03*
G54D58*
X153Y402D03*
G54D44*
X1953Y752D03*
G54D29*
X2403Y1102D03*
G54D72*
X2853Y1552D03*
G54D60*
X1553Y52D03*
G54D73*
X3153Y402D03*
G54D59*
X253Y402D03*
G54D45*
X1753Y752D03*
G54D23*
X2153Y1102D03*
G54D74*
X2553Y1553D03*
G54D60*
X1653Y52D03*
G54D55*
X353Y402D03*
G54D75*
X353Y752D03*
G54D40*
X403Y1102D03*
G54D76*
X453Y1552D03*
G54D60*
X1753Y52D03*
G54D77*
X2853Y402D03*
G54D57*
X453Y402D03*
G54D46*
X1553Y752D03*
G54D30*
X1903Y1102D03*
G54D78*
X2253Y1552D03*
G54D60*
X1853Y52D03*
G54D79*
X2553Y402D03*
G54D56*
X553Y402D03*
G54D47*
X1353Y752D03*
G54D31*
X1653Y1102D03*
G54D80*
X1953Y1552D03*
G54D60*
X1953Y52D03*
G54D54*
X653Y402D03*
G54D51*
X553Y752D03*
G54D37*
X653Y1102D03*
G54D36*
X753Y1552D03*
G54D60*
X2053Y52D03*
G54D81*
X1253Y402D03*
G54D53*
X803Y402D03*
G54D48*
X1153Y752D03*
G54D32*
X1403Y1102D03*
G54D82*
X1653Y1552D03*
G54D60*
X2153Y52D03*
X1453Y3302D03*
X1553Y3302D03*
X1653Y3302D03*
X1753Y3302D03*
X1853Y3302D03*
X1953Y3302D03*
X2053Y3302D03*
G54D83*
X153Y52D03*
G54D84*
X53Y52D03*
G54D85*
X453Y52D03*
G54D86*
X553Y52D03*
G54D87*
X253Y52D03*
G54D88*
X353Y52D03*
G54D89*
X753Y52D03*
G54D90*
X653Y52D03*
G54D91*
X953Y52D03*
G54D63*
X1053Y52D03*
G54D62*
X1153Y52D03*
G54D61*
X1253Y52D03*
G54D60*
X1353Y52D03*
G54D92*
X853Y52D03*
G04 End of Mask0*
M02*