G04 MADE WITH FRITZING*
G04 WWW.FRITZING.ORG*
G04 DOUBLE SIDED*
G04 HOLES PLATED*
G04 CONTOUR ON CENTER OF CONTOUR VECTOR*
%ASAXBY*%
%FSLAX23Y23*%
%MOIN*%
%OFA0B0*%
%SFA1.0B1.0*%
%ADD10C,0.079370*%
%ADD11C,0.078000*%
%ADD12C,0.142362*%
%ADD13C,0.048000*%
%ADD14C,0.032000*%
%ADD15C,0.024000*%
%LNCOPPER0*%
G90*
G70*
G54D10*
X146Y1054D03*
X246Y1054D03*
X346Y1054D03*
X446Y1054D03*
X146Y954D03*
X246Y954D03*
X346Y954D03*
X446Y954D03*
G54D11*
X446Y1204D03*
X446Y1304D03*
X446Y1404D03*
X446Y1504D03*
X446Y1604D03*
X346Y1204D03*
X346Y1304D03*
X346Y1404D03*
X346Y1504D03*
X346Y1604D03*
X246Y1204D03*
X246Y1304D03*
X246Y1404D03*
X246Y1504D03*
X246Y1604D03*
X446Y1754D03*
X346Y1754D03*
X246Y1754D03*
X146Y1204D03*
X146Y1304D03*
X146Y1404D03*
X146Y1504D03*
X146Y1604D03*
G54D12*
X430Y323D03*
X246Y438D03*
X246Y204D03*
G54D11*
X146Y604D03*
X246Y604D03*
X346Y604D03*
X446Y604D03*
X546Y604D03*
X118Y304D03*
X574Y304D03*
G54D13*
X269Y1638D02*
X323Y1719D01*
D02*
X369Y1638D02*
X423Y1719D01*
D02*
X146Y1445D02*
X146Y1462D01*
G54D14*
D02*
X171Y1329D02*
X221Y1378D01*
G54D13*
D02*
X145Y879D02*
X246Y854D01*
D02*
X246Y854D02*
X246Y753D01*
D02*
X246Y753D02*
X169Y638D01*
D02*
X146Y912D02*
X145Y879D01*
D02*
X447Y753D02*
X523Y638D01*
D02*
X446Y912D02*
X447Y753D01*
D02*
X546Y478D02*
X474Y382D01*
D02*
X546Y562D02*
X546Y478D01*
D02*
X388Y263D02*
X346Y204D01*
D02*
X346Y204D02*
X319Y204D01*
D02*
X146Y503D02*
X146Y562D01*
D02*
X184Y478D02*
X146Y503D01*
D02*
X487Y1603D02*
X546Y1603D01*
D02*
X546Y1603D02*
X546Y1104D01*
D02*
X546Y1104D02*
X483Y1073D01*
D02*
X387Y1504D02*
X405Y1504D01*
G54D15*
D02*
X246Y1274D02*
X246Y1234D01*
D02*
X346Y1274D02*
X346Y1234D01*
G54D13*
D02*
X205Y1604D02*
X187Y1604D01*
D02*
X146Y996D02*
X146Y1012D01*
D02*
X146Y1262D02*
X146Y1245D01*
D02*
X346Y1545D02*
X346Y1562D01*
G54D15*
D02*
X246Y984D02*
X246Y1023D01*
G54D13*
D02*
X446Y996D02*
X446Y1012D01*
D02*
X405Y1404D02*
X387Y1404D01*
D02*
X287Y1504D02*
X305Y1504D01*
D02*
X146Y1162D02*
X146Y1096D01*
D02*
X305Y1404D02*
X287Y1404D01*
G54D15*
D02*
X446Y1274D02*
X446Y1234D01*
D02*
X346Y984D02*
X346Y1023D01*
G54D13*
D02*
X187Y1504D02*
X205Y1504D01*
D02*
X116Y1304D02*
X45Y1304D01*
D02*
X45Y1304D02*
X45Y1753D01*
D02*
X45Y1753D02*
X216Y1754D01*
G04 End of Copper0*
M02*