; NON-PLATED HOLES START AT T1
; THROUGH (PLATED) HOLES START AT T100
M48
INCH
T1C0.125984
T100C0.102362
T101C0.039370
T102C0.038000
%
T1
X005709Y021786
X005709Y007536
X000959Y021786
X005709Y001036
X000959Y001036
X000959Y007536
T100
X002459Y004382
X004298Y003228
X002459Y002036
T101
X004459Y009536
X002459Y010536
X003459Y009536
X004459Y010536
X001459Y009536
X002459Y009536
X001459Y010536
X003459Y010536
T102
X004459Y012036
X002459Y015036
X002459Y014036
X001459Y016036
X004459Y006036
X002459Y012036
X003459Y013036
X003459Y015036
X001459Y015036
X003459Y017536
X003459Y016036
X003459Y006036
X005459Y006036
X001182Y003036
X002459Y013036
X002459Y017536
X004459Y014036
X003459Y012036
X001459Y013036
X002459Y006036
X003459Y014036
X004459Y015036
X005737Y003036
X001459Y012036
X004459Y013036
X001459Y006036
X004459Y016036
X001459Y014036
X004459Y017536
X002459Y016036
T00
M30
