G04 MADE WITH FRITZING*
G04 WWW.FRITZING.ORG*
G04 DOUBLE SIDED*
G04 HOLES PLATED*
G04 CONTOUR ON CENTER OF CONTOUR VECTOR*
%ASAXBY*%
%FSLAX23Y23*%
%MOIN*%
%OFA0B0*%
%SFA1.0B1.0*%
%ADD10R,0.001000X0.001000*%
%LNSILK0*%
G90*
G70*
G54D10*
X588Y1632D02*
X607Y1632D01*
X586Y1631D02*
X609Y1631D01*
X585Y1630D02*
X610Y1630D01*
X585Y1629D02*
X609Y1629D01*
X586Y1628D02*
X609Y1628D01*
X586Y1627D02*
X591Y1627D01*
X586Y1626D02*
X590Y1626D01*
X585Y1625D02*
X589Y1625D01*
X585Y1624D02*
X589Y1624D01*
X585Y1623D02*
X589Y1623D01*
X585Y1622D02*
X609Y1622D01*
X586Y1621D02*
X610Y1621D01*
X587Y1620D02*
X610Y1620D01*
X587Y1619D02*
X609Y1619D01*
X586Y1618D02*
X591Y1618D01*
X586Y1617D02*
X590Y1617D01*
X585Y1616D02*
X589Y1616D01*
X585Y1615D02*
X589Y1615D01*
X585Y1614D02*
X592Y1614D01*
X586Y1613D02*
X609Y1613D01*
X586Y1612D02*
X609Y1612D01*
X587Y1611D02*
X610Y1611D01*
X589Y1610D02*
X609Y1610D01*
X606Y1609D02*
X608Y1609D01*
X586Y1596D02*
X588Y1596D01*
X607Y1596D02*
X609Y1596D01*
X585Y1595D02*
X589Y1595D01*
X606Y1595D02*
X610Y1595D01*
X585Y1594D02*
X589Y1594D01*
X606Y1594D02*
X610Y1594D01*
X585Y1593D02*
X589Y1593D01*
X606Y1593D02*
X610Y1593D01*
X575Y1592D02*
X578Y1592D01*
X585Y1592D02*
X589Y1592D01*
X606Y1592D02*
X610Y1592D01*
X574Y1591D02*
X579Y1591D01*
X585Y1591D02*
X589Y1591D01*
X606Y1591D02*
X610Y1591D01*
X574Y1590D02*
X579Y1590D01*
X585Y1590D02*
X589Y1590D01*
X606Y1590D02*
X610Y1590D01*
X574Y1589D02*
X579Y1589D01*
X585Y1589D02*
X610Y1589D01*
X574Y1588D02*
X579Y1588D01*
X585Y1588D02*
X610Y1588D01*
X574Y1587D02*
X579Y1587D01*
X585Y1587D02*
X610Y1587D01*
X575Y1586D02*
X578Y1586D01*
X586Y1586D02*
X610Y1586D01*
X606Y1585D02*
X610Y1585D01*
X606Y1584D02*
X610Y1584D01*
X606Y1583D02*
X610Y1583D01*
X606Y1582D02*
X610Y1582D01*
X606Y1581D02*
X610Y1581D01*
X606Y1580D02*
X609Y1580D01*
X608Y1579D02*
X608Y1579D01*
X593Y1566D02*
X601Y1566D01*
X591Y1565D02*
X603Y1565D01*
X590Y1564D02*
X605Y1564D01*
X589Y1563D02*
X605Y1563D01*
X588Y1562D02*
X606Y1562D01*
X587Y1561D02*
X593Y1561D01*
X602Y1561D02*
X607Y1561D01*
X587Y1560D02*
X592Y1560D01*
X603Y1560D02*
X608Y1560D01*
X586Y1559D02*
X591Y1559D01*
X604Y1559D02*
X609Y1559D01*
X586Y1558D02*
X590Y1558D01*
X605Y1558D02*
X609Y1558D01*
X585Y1557D02*
X589Y1557D01*
X606Y1557D02*
X609Y1557D01*
X585Y1556D02*
X589Y1556D01*
X606Y1556D02*
X610Y1556D01*
X585Y1555D02*
X589Y1555D01*
X606Y1555D02*
X610Y1555D01*
X585Y1554D02*
X589Y1554D01*
X606Y1554D02*
X610Y1554D01*
X585Y1553D02*
X589Y1553D01*
X606Y1553D02*
X610Y1553D01*
X585Y1552D02*
X589Y1552D01*
X606Y1552D02*
X610Y1552D01*
X585Y1551D02*
X589Y1551D01*
X606Y1551D02*
X610Y1551D01*
X585Y1550D02*
X589Y1550D01*
X606Y1550D02*
X610Y1550D01*
X585Y1549D02*
X589Y1549D01*
X606Y1549D02*
X610Y1549D01*
X585Y1548D02*
X589Y1548D01*
X606Y1548D02*
X610Y1548D01*
X585Y1547D02*
X589Y1547D01*
X606Y1547D02*
X610Y1547D01*
X585Y1546D02*
X589Y1546D01*
X606Y1546D02*
X610Y1546D01*
X585Y1545D02*
X588Y1545D01*
X606Y1545D02*
X609Y1545D01*
X587Y1544D02*
X587Y1544D01*
X608Y1544D02*
X608Y1544D01*
X586Y1533D02*
X609Y1533D01*
X585Y1532D02*
X609Y1532D01*
X585Y1531D02*
X610Y1531D01*
X586Y1530D02*
X609Y1530D01*
X587Y1529D02*
X607Y1529D01*
X589Y1528D02*
X594Y1528D01*
X588Y1527D02*
X593Y1527D01*
X587Y1526D02*
X592Y1526D01*
X587Y1525D02*
X592Y1525D01*
X586Y1524D02*
X591Y1524D01*
X585Y1523D02*
X590Y1523D01*
X585Y1522D02*
X589Y1522D01*
X585Y1521D02*
X589Y1521D01*
X585Y1520D02*
X589Y1520D01*
X585Y1519D02*
X589Y1519D01*
X585Y1518D02*
X589Y1518D01*
X585Y1517D02*
X589Y1517D01*
X585Y1516D02*
X590Y1516D01*
X586Y1515D02*
X594Y1515D01*
X586Y1514D02*
X594Y1514D01*
X587Y1513D02*
X594Y1513D01*
X589Y1512D02*
X594Y1512D01*
X590Y1500D02*
X605Y1500D01*
X589Y1499D02*
X606Y1499D01*
X588Y1498D02*
X607Y1498D01*
X587Y1497D02*
X608Y1497D01*
X586Y1496D02*
X591Y1496D01*
X603Y1496D02*
X609Y1496D01*
X586Y1495D02*
X590Y1495D01*
X605Y1495D02*
X609Y1495D01*
X585Y1494D02*
X589Y1494D01*
X605Y1494D02*
X609Y1494D01*
X585Y1493D02*
X589Y1493D01*
X606Y1493D02*
X610Y1493D01*
X585Y1492D02*
X589Y1492D01*
X606Y1492D02*
X610Y1492D01*
X585Y1491D02*
X589Y1491D01*
X606Y1491D02*
X610Y1491D01*
X585Y1490D02*
X589Y1490D01*
X606Y1490D02*
X610Y1490D01*
X585Y1489D02*
X589Y1489D01*
X606Y1489D02*
X610Y1489D01*
X585Y1488D02*
X589Y1488D01*
X606Y1488D02*
X610Y1488D01*
X585Y1487D02*
X589Y1487D01*
X606Y1487D02*
X610Y1487D01*
X585Y1486D02*
X589Y1486D01*
X606Y1486D02*
X609Y1486D01*
X585Y1485D02*
X589Y1485D01*
X605Y1485D02*
X609Y1485D01*
X586Y1484D02*
X590Y1484D01*
X604Y1484D02*
X609Y1484D01*
X586Y1483D02*
X592Y1483D01*
X603Y1483D02*
X608Y1483D01*
X587Y1482D02*
X608Y1482D01*
X588Y1481D02*
X607Y1481D01*
X589Y1480D02*
X606Y1480D01*
X591Y1479D02*
X604Y1479D01*
X582Y1461D02*
X588Y1461D01*
X598Y1461D02*
X603Y1461D01*
X581Y1460D02*
X588Y1460D01*
X597Y1460D02*
X604Y1460D01*
X581Y1459D02*
X589Y1459D01*
X597Y1459D02*
X604Y1459D01*
X581Y1458D02*
X589Y1458D01*
X597Y1458D02*
X604Y1458D01*
X581Y1457D02*
X589Y1457D01*
X597Y1457D02*
X604Y1457D01*
X581Y1456D02*
X589Y1456D01*
X597Y1456D02*
X604Y1456D01*
X581Y1455D02*
X589Y1455D01*
X597Y1455D02*
X604Y1455D01*
X581Y1454D02*
X588Y1454D01*
X597Y1454D02*
X604Y1454D01*
X582Y1453D02*
X588Y1453D01*
X597Y1453D02*
X603Y1453D01*
X577Y1435D02*
X609Y1435D01*
X576Y1434D02*
X609Y1434D01*
X576Y1433D02*
X610Y1433D01*
X576Y1432D02*
X609Y1432D01*
X577Y1431D02*
X608Y1431D01*
X587Y1430D02*
X592Y1430D01*
X602Y1430D02*
X607Y1430D01*
X587Y1429D02*
X592Y1429D01*
X603Y1429D02*
X608Y1429D01*
X586Y1428D02*
X591Y1428D01*
X604Y1428D02*
X609Y1428D01*
X586Y1427D02*
X590Y1427D01*
X605Y1427D02*
X609Y1427D01*
X585Y1426D02*
X589Y1426D01*
X606Y1426D02*
X609Y1426D01*
X585Y1425D02*
X589Y1425D01*
X606Y1425D02*
X610Y1425D01*
X585Y1424D02*
X589Y1424D01*
X606Y1424D02*
X610Y1424D01*
X585Y1423D02*
X589Y1423D01*
X606Y1423D02*
X610Y1423D01*
X585Y1422D02*
X589Y1422D01*
X606Y1422D02*
X610Y1422D01*
X585Y1421D02*
X589Y1421D01*
X606Y1421D02*
X610Y1421D01*
X585Y1420D02*
X589Y1420D01*
X606Y1420D02*
X609Y1420D01*
X586Y1419D02*
X590Y1419D01*
X605Y1419D02*
X609Y1419D01*
X586Y1418D02*
X591Y1418D01*
X604Y1418D02*
X609Y1418D01*
X587Y1417D02*
X608Y1417D01*
X588Y1416D02*
X607Y1416D01*
X589Y1415D02*
X606Y1415D01*
X590Y1414D02*
X605Y1414D01*
X586Y1400D02*
X588Y1400D01*
X607Y1400D02*
X609Y1400D01*
X585Y1399D02*
X588Y1399D01*
X606Y1399D02*
X609Y1399D01*
X585Y1398D02*
X589Y1398D01*
X606Y1398D02*
X610Y1398D01*
X585Y1397D02*
X589Y1397D01*
X606Y1397D02*
X610Y1397D01*
X576Y1396D02*
X577Y1396D01*
X585Y1396D02*
X589Y1396D01*
X606Y1396D02*
X610Y1396D01*
X574Y1395D02*
X579Y1395D01*
X585Y1395D02*
X589Y1395D01*
X606Y1395D02*
X610Y1395D01*
X574Y1394D02*
X579Y1394D01*
X585Y1394D02*
X589Y1394D01*
X606Y1394D02*
X610Y1394D01*
X574Y1393D02*
X579Y1393D01*
X585Y1393D02*
X610Y1393D01*
X574Y1392D02*
X579Y1392D01*
X585Y1392D02*
X610Y1392D01*
X574Y1391D02*
X579Y1391D01*
X585Y1391D02*
X610Y1391D01*
X574Y1390D02*
X578Y1390D01*
X586Y1390D02*
X610Y1390D01*
X606Y1389D02*
X610Y1389D01*
X606Y1388D02*
X610Y1388D01*
X606Y1387D02*
X610Y1387D01*
X606Y1386D02*
X610Y1386D01*
X606Y1385D02*
X610Y1385D01*
X606Y1384D02*
X609Y1384D01*
X607Y1383D02*
X609Y1383D01*
X586Y1369D02*
X588Y1369D01*
X585Y1368D02*
X589Y1368D01*
X585Y1367D02*
X589Y1367D01*
X585Y1366D02*
X589Y1366D01*
X578Y1365D02*
X605Y1365D01*
X578Y1364D02*
X607Y1364D01*
X578Y1363D02*
X608Y1363D01*
X578Y1362D02*
X609Y1362D01*
X585Y1361D02*
X589Y1361D01*
X604Y1361D02*
X609Y1361D01*
X585Y1360D02*
X589Y1360D01*
X606Y1360D02*
X610Y1360D01*
X585Y1359D02*
X589Y1359D01*
X606Y1359D02*
X610Y1359D01*
X585Y1358D02*
X589Y1358D01*
X606Y1358D02*
X610Y1358D01*
X585Y1357D02*
X589Y1357D01*
X606Y1357D02*
X610Y1357D01*
X585Y1356D02*
X589Y1356D01*
X606Y1356D02*
X610Y1356D01*
X585Y1355D02*
X589Y1355D01*
X606Y1355D02*
X610Y1355D01*
X585Y1354D02*
X589Y1354D01*
X606Y1354D02*
X610Y1354D01*
X585Y1353D02*
X589Y1353D01*
X605Y1353D02*
X609Y1353D01*
X585Y1352D02*
X589Y1352D01*
X604Y1352D02*
X609Y1352D01*
X585Y1351D02*
X588Y1351D01*
X603Y1351D02*
X609Y1351D01*
X587Y1350D02*
X587Y1350D01*
X602Y1350D02*
X608Y1350D01*
X603Y1349D02*
X607Y1349D01*
X603Y1348D02*
X605Y1348D01*
X590Y1304D02*
X590Y1304D01*
X605Y1304D02*
X607Y1304D01*
X588Y1303D02*
X593Y1303D01*
X604Y1303D02*
X608Y1303D01*
X587Y1302D02*
X594Y1302D01*
X604Y1302D02*
X608Y1302D01*
X586Y1301D02*
X595Y1301D01*
X605Y1301D02*
X609Y1301D01*
X585Y1300D02*
X595Y1300D01*
X605Y1300D02*
X609Y1300D01*
X585Y1299D02*
X589Y1299D01*
X592Y1299D02*
X596Y1299D01*
X606Y1299D02*
X609Y1299D01*
X585Y1298D02*
X589Y1298D01*
X592Y1298D02*
X596Y1298D01*
X606Y1298D02*
X610Y1298D01*
X585Y1297D02*
X589Y1297D01*
X593Y1297D02*
X597Y1297D01*
X606Y1297D02*
X610Y1297D01*
X585Y1296D02*
X589Y1296D01*
X593Y1296D02*
X597Y1296D01*
X606Y1296D02*
X610Y1296D01*
X585Y1295D02*
X589Y1295D01*
X594Y1295D02*
X598Y1295D01*
X606Y1295D02*
X610Y1295D01*
X585Y1294D02*
X589Y1294D01*
X594Y1294D02*
X598Y1294D01*
X606Y1294D02*
X610Y1294D01*
X585Y1293D02*
X589Y1293D01*
X595Y1293D02*
X598Y1293D01*
X606Y1293D02*
X610Y1293D01*
X585Y1292D02*
X589Y1292D01*
X595Y1292D02*
X599Y1292D01*
X606Y1292D02*
X610Y1292D01*
X585Y1291D02*
X589Y1291D01*
X595Y1291D02*
X599Y1291D01*
X606Y1291D02*
X610Y1291D01*
X585Y1290D02*
X589Y1290D01*
X596Y1290D02*
X600Y1290D01*
X606Y1290D02*
X610Y1290D01*
X585Y1289D02*
X589Y1289D01*
X596Y1289D02*
X600Y1289D01*
X606Y1289D02*
X610Y1289D01*
X585Y1288D02*
X589Y1288D01*
X597Y1288D02*
X601Y1288D01*
X606Y1288D02*
X610Y1288D01*
X585Y1287D02*
X589Y1287D01*
X597Y1287D02*
X602Y1287D01*
X604Y1287D02*
X609Y1287D01*
X586Y1286D02*
X590Y1286D01*
X598Y1286D02*
X609Y1286D01*
X586Y1285D02*
X591Y1285D01*
X598Y1285D02*
X608Y1285D01*
X587Y1284D02*
X590Y1284D01*
X599Y1284D02*
X607Y1284D01*
X588Y1283D02*
X589Y1283D01*
X601Y1283D02*
X606Y1283D01*
X590Y1271D02*
X605Y1271D01*
X589Y1270D02*
X606Y1270D01*
X588Y1269D02*
X607Y1269D01*
X587Y1268D02*
X608Y1268D01*
X586Y1267D02*
X591Y1267D01*
X596Y1267D02*
X600Y1267D01*
X604Y1267D02*
X609Y1267D01*
X586Y1266D02*
X590Y1266D01*
X597Y1266D02*
X600Y1266D01*
X605Y1266D02*
X609Y1266D01*
X585Y1265D02*
X589Y1265D01*
X597Y1265D02*
X600Y1265D01*
X605Y1265D02*
X609Y1265D01*
X585Y1264D02*
X589Y1264D01*
X597Y1264D02*
X600Y1264D01*
X606Y1264D02*
X610Y1264D01*
X585Y1263D02*
X589Y1263D01*
X597Y1263D02*
X600Y1263D01*
X606Y1263D02*
X610Y1263D01*
X585Y1262D02*
X589Y1262D01*
X597Y1262D02*
X600Y1262D01*
X606Y1262D02*
X610Y1262D01*
X585Y1261D02*
X589Y1261D01*
X597Y1261D02*
X600Y1261D01*
X606Y1261D02*
X610Y1261D01*
X585Y1260D02*
X589Y1260D01*
X597Y1260D02*
X600Y1260D01*
X606Y1260D02*
X610Y1260D01*
X585Y1259D02*
X589Y1259D01*
X597Y1259D02*
X600Y1259D01*
X606Y1259D02*
X610Y1259D01*
X585Y1258D02*
X589Y1258D01*
X597Y1258D02*
X600Y1258D01*
X606Y1258D02*
X610Y1258D01*
X585Y1257D02*
X589Y1257D01*
X597Y1257D02*
X600Y1257D01*
X606Y1257D02*
X610Y1257D01*
X585Y1256D02*
X589Y1256D01*
X597Y1256D02*
X600Y1256D01*
X606Y1256D02*
X610Y1256D01*
X586Y1255D02*
X590Y1255D01*
X597Y1255D02*
X600Y1255D01*
X606Y1255D02*
X610Y1255D01*
X586Y1254D02*
X600Y1254D01*
X606Y1254D02*
X610Y1254D01*
X587Y1253D02*
X600Y1253D01*
X606Y1253D02*
X610Y1253D01*
X588Y1252D02*
X600Y1252D01*
X606Y1252D02*
X610Y1252D01*
X589Y1251D02*
X600Y1251D01*
X606Y1251D02*
X609Y1251D01*
X591Y1250D02*
X599Y1250D01*
X607Y1250D02*
X609Y1250D01*
X587Y1239D02*
X608Y1239D01*
X585Y1238D02*
X609Y1238D01*
X585Y1237D02*
X610Y1237D01*
X585Y1236D02*
X609Y1236D01*
X586Y1235D02*
X608Y1235D01*
X589Y1234D02*
X595Y1234D01*
X589Y1233D02*
X594Y1233D01*
X588Y1232D02*
X593Y1232D01*
X587Y1231D02*
X592Y1231D01*
X586Y1230D02*
X591Y1230D01*
X585Y1229D02*
X590Y1229D01*
X585Y1228D02*
X589Y1228D01*
X585Y1227D02*
X589Y1227D01*
X585Y1226D02*
X589Y1226D01*
X585Y1225D02*
X589Y1225D01*
X585Y1224D02*
X589Y1224D01*
X585Y1223D02*
X589Y1223D01*
X585Y1222D02*
X589Y1222D01*
X586Y1221D02*
X593Y1221D01*
X586Y1220D02*
X594Y1220D01*
X587Y1219D02*
X594Y1219D01*
X588Y1218D02*
X594Y1218D01*
X590Y1217D02*
X593Y1217D01*
X586Y1206D02*
X592Y1206D01*
X585Y1205D02*
X594Y1205D01*
X585Y1204D02*
X596Y1204D01*
X586Y1203D02*
X599Y1203D01*
X587Y1202D02*
X601Y1202D01*
X593Y1201D02*
X603Y1201D01*
X595Y1200D02*
X606Y1200D01*
X597Y1199D02*
X608Y1199D01*
X600Y1198D02*
X609Y1198D01*
X602Y1197D02*
X610Y1197D01*
X604Y1196D02*
X610Y1196D01*
X605Y1195D02*
X610Y1195D01*
X603Y1194D02*
X610Y1194D01*
X601Y1193D02*
X609Y1193D01*
X598Y1192D02*
X608Y1192D01*
X596Y1191D02*
X606Y1191D01*
X594Y1190D02*
X604Y1190D01*
X592Y1189D02*
X602Y1189D01*
X586Y1188D02*
X600Y1188D01*
X585Y1187D02*
X597Y1187D01*
X585Y1186D02*
X595Y1186D01*
X586Y1185D02*
X593Y1185D01*
X590Y1173D02*
X605Y1173D01*
X589Y1172D02*
X606Y1172D01*
X588Y1171D02*
X607Y1171D01*
X587Y1170D02*
X608Y1170D01*
X586Y1169D02*
X591Y1169D01*
X603Y1169D02*
X609Y1169D01*
X586Y1168D02*
X590Y1168D01*
X605Y1168D02*
X609Y1168D01*
X585Y1167D02*
X589Y1167D01*
X605Y1167D02*
X609Y1167D01*
X585Y1166D02*
X589Y1166D01*
X606Y1166D02*
X610Y1166D01*
X585Y1165D02*
X589Y1165D01*
X606Y1165D02*
X610Y1165D01*
X585Y1164D02*
X589Y1164D01*
X606Y1164D02*
X610Y1164D01*
X585Y1163D02*
X589Y1163D01*
X606Y1163D02*
X610Y1163D01*
X585Y1162D02*
X589Y1162D01*
X606Y1162D02*
X610Y1162D01*
X585Y1161D02*
X589Y1161D01*
X606Y1161D02*
X610Y1161D01*
X585Y1160D02*
X589Y1160D01*
X606Y1160D02*
X610Y1160D01*
X585Y1159D02*
X589Y1159D01*
X606Y1159D02*
X609Y1159D01*
X585Y1158D02*
X589Y1158D01*
X605Y1158D02*
X609Y1158D01*
X586Y1157D02*
X590Y1157D01*
X604Y1157D02*
X609Y1157D01*
X586Y1156D02*
X592Y1156D01*
X603Y1156D02*
X608Y1156D01*
X587Y1155D02*
X608Y1155D01*
X588Y1154D02*
X607Y1154D01*
X589Y1153D02*
X606Y1153D01*
X590Y1152D02*
X604Y1152D01*
X577Y1108D02*
X609Y1108D01*
X576Y1107D02*
X609Y1107D01*
X576Y1106D02*
X610Y1106D01*
X576Y1105D02*
X609Y1105D01*
X577Y1104D02*
X608Y1104D01*
X587Y1103D02*
X592Y1103D01*
X602Y1103D02*
X607Y1103D01*
X587Y1102D02*
X592Y1102D01*
X603Y1102D02*
X608Y1102D01*
X586Y1101D02*
X591Y1101D01*
X604Y1101D02*
X609Y1101D01*
X586Y1100D02*
X590Y1100D01*
X605Y1100D02*
X609Y1100D01*
X585Y1099D02*
X589Y1099D01*
X606Y1099D02*
X609Y1099D01*
X585Y1098D02*
X589Y1098D01*
X606Y1098D02*
X610Y1098D01*
X585Y1097D02*
X589Y1097D01*
X606Y1097D02*
X610Y1097D01*
X585Y1096D02*
X589Y1096D01*
X606Y1096D02*
X610Y1096D01*
X585Y1095D02*
X589Y1095D01*
X606Y1095D02*
X610Y1095D01*
X585Y1094D02*
X589Y1094D01*
X606Y1094D02*
X610Y1094D01*
X585Y1093D02*
X589Y1093D01*
X606Y1093D02*
X609Y1093D01*
X586Y1092D02*
X590Y1092D01*
X605Y1092D02*
X609Y1092D01*
X586Y1091D02*
X591Y1091D01*
X604Y1091D02*
X609Y1091D01*
X587Y1090D02*
X608Y1090D01*
X588Y1089D02*
X607Y1089D01*
X588Y1088D02*
X606Y1088D01*
X590Y1087D02*
X605Y1087D01*
X593Y1086D02*
X602Y1086D01*
X590Y1075D02*
X604Y1075D01*
X589Y1074D02*
X606Y1074D01*
X588Y1073D02*
X607Y1073D01*
X587Y1072D02*
X608Y1072D01*
X586Y1071D02*
X592Y1071D01*
X603Y1071D02*
X608Y1071D01*
X586Y1070D02*
X590Y1070D01*
X605Y1070D02*
X609Y1070D01*
X585Y1069D02*
X589Y1069D01*
X605Y1069D02*
X609Y1069D01*
X585Y1068D02*
X589Y1068D01*
X606Y1068D02*
X610Y1068D01*
X585Y1067D02*
X589Y1067D01*
X606Y1067D02*
X610Y1067D01*
X585Y1066D02*
X589Y1066D01*
X606Y1066D02*
X610Y1066D01*
X585Y1065D02*
X589Y1065D01*
X606Y1065D02*
X610Y1065D01*
X585Y1064D02*
X589Y1064D01*
X606Y1064D02*
X610Y1064D01*
X585Y1063D02*
X589Y1063D01*
X606Y1063D02*
X610Y1063D01*
X585Y1062D02*
X589Y1062D01*
X606Y1062D02*
X610Y1062D01*
X585Y1061D02*
X589Y1061D01*
X606Y1061D02*
X610Y1061D01*
X585Y1060D02*
X589Y1060D01*
X605Y1060D02*
X609Y1060D01*
X586Y1059D02*
X590Y1059D01*
X605Y1059D02*
X609Y1059D01*
X586Y1058D02*
X592Y1058D01*
X603Y1058D02*
X608Y1058D01*
X587Y1057D02*
X608Y1057D01*
X588Y1056D02*
X607Y1056D01*
X589Y1055D02*
X606Y1055D01*
X590Y1054D02*
X604Y1054D01*
X586Y1042D02*
X609Y1042D01*
X585Y1041D02*
X610Y1041D01*
X585Y1040D02*
X609Y1040D01*
X586Y1039D02*
X609Y1039D01*
X590Y1038D02*
X595Y1038D01*
X589Y1037D02*
X594Y1037D01*
X588Y1036D02*
X593Y1036D01*
X587Y1035D02*
X592Y1035D01*
X586Y1034D02*
X591Y1034D01*
X585Y1033D02*
X590Y1033D01*
X585Y1032D02*
X590Y1032D01*
X585Y1031D02*
X589Y1031D01*
X585Y1030D02*
X589Y1030D01*
X585Y1029D02*
X589Y1029D01*
X585Y1028D02*
X589Y1028D01*
X585Y1027D02*
X589Y1027D01*
X585Y1026D02*
X589Y1026D01*
X586Y1025D02*
X593Y1025D01*
X586Y1024D02*
X594Y1024D01*
X587Y1023D02*
X594Y1023D01*
X588Y1022D02*
X594Y1022D01*
X590Y1021D02*
X593Y1021D01*
X591Y1010D02*
X603Y1010D01*
X589Y1009D02*
X605Y1009D01*
X588Y1008D02*
X607Y1008D01*
X587Y1007D02*
X607Y1007D01*
X587Y1006D02*
X608Y1006D01*
X586Y1005D02*
X591Y1005D01*
X604Y1005D02*
X609Y1005D01*
X585Y1004D02*
X590Y1004D01*
X605Y1004D02*
X609Y1004D01*
X585Y1003D02*
X589Y1003D01*
X606Y1003D02*
X610Y1003D01*
X585Y1002D02*
X589Y1002D01*
X606Y1002D02*
X610Y1002D01*
X585Y1001D02*
X589Y1001D01*
X606Y1001D02*
X610Y1001D01*
X585Y1000D02*
X589Y1000D01*
X606Y1000D02*
X610Y1000D01*
X585Y999D02*
X589Y999D01*
X606Y999D02*
X610Y999D01*
X585Y998D02*
X589Y998D01*
X606Y998D02*
X610Y998D01*
X585Y997D02*
X589Y997D01*
X605Y997D02*
X609Y997D01*
X586Y996D02*
X590Y996D01*
X605Y996D02*
X609Y996D01*
X586Y995D02*
X591Y995D01*
X604Y995D02*
X609Y995D01*
X587Y994D02*
X592Y994D01*
X603Y994D02*
X608Y994D01*
X588Y993D02*
X593Y993D01*
X602Y993D02*
X607Y993D01*
X577Y992D02*
X609Y992D01*
X576Y991D02*
X609Y991D01*
X576Y990D02*
X610Y990D01*
X576Y989D02*
X609Y989D01*
X577Y988D02*
X608Y988D01*
D02*
G04 End of Silk0*
M02*