G04 MADE WITH FRITZING*
G04 WWW.FRITZING.ORG*
G04 DOUBLE SIDED*
G04 HOLES PLATED*
G04 CONTOUR ON CENTER OF CONTOUR VECTOR*
%ASAXBY*%
%FSLAX23Y23*%
%MOIN*%
%OFA0B0*%
%SFA1.0B1.0*%
%ADD10C,0.065000*%
%ADD11C,0.078000*%
%ADD12C,0.079370*%
%ADD13C,0.110866*%
%ADD14C,0.138425*%
%ADD15C,0.236220*%
%ADD16C,0.196850*%
%ADD17C,0.048000*%
%ADD18C,0.024000*%
%ADD19R,0.001000X0.001000*%
%LNCOPPER1*%
G90*
G70*
G54D10*
X2428Y1072D03*
X2428Y1172D03*
X2428Y1072D03*
X2428Y1172D03*
G54D11*
X2178Y522D03*
X2078Y622D03*
X2078Y522D03*
X2378Y522D03*
X2378Y622D03*
X2378Y722D03*
X2378Y822D03*
X2278Y522D03*
X2278Y622D03*
X2278Y722D03*
X2278Y822D03*
G54D12*
X1528Y1522D03*
G54D13*
X1128Y1522D03*
X1928Y1522D03*
G54D11*
X2578Y72D03*
X2478Y72D03*
X2378Y72D03*
X2278Y72D03*
X2078Y72D03*
X1978Y72D03*
X1878Y72D03*
X1778Y72D03*
X1178Y72D03*
X1078Y72D03*
X978Y72D03*
X878Y72D03*
X1578Y72D03*
X1478Y72D03*
X1378Y72D03*
X678Y72D03*
X578Y72D03*
X478Y72D03*
X578Y522D03*
X578Y422D03*
X578Y322D03*
X1028Y522D03*
X1028Y422D03*
X1028Y322D03*
X178Y522D03*
X178Y422D03*
X178Y322D03*
X1028Y1972D03*
X1028Y2072D03*
G54D14*
X1194Y1937D03*
X1378Y1822D03*
X1378Y2056D03*
G54D11*
X978Y1272D03*
X878Y1272D03*
X778Y1272D03*
X2528Y1722D03*
X2428Y1722D03*
X2328Y1722D03*
X2228Y1722D03*
X2128Y1722D03*
X2556Y2022D03*
X2100Y2022D03*
X278Y72D03*
X178Y72D03*
X78Y72D03*
X228Y1872D03*
X128Y1872D03*
G54D15*
X178Y922D03*
G54D16*
X578Y922D03*
X1028Y922D03*
X1478Y922D03*
X1878Y922D03*
G54D17*
X479Y573D02*
X277Y573D01*
D02*
X277Y573D02*
X215Y541D01*
D02*
X542Y541D02*
X479Y573D01*
D02*
X1529Y1521D02*
X1186Y1522D01*
D02*
X1529Y1422D02*
X1529Y1521D01*
D02*
X2078Y1420D02*
X1529Y1422D01*
D02*
X2078Y663D02*
X2078Y1420D01*
D02*
X1378Y921D02*
X1378Y1322D01*
D02*
X978Y1422D02*
X879Y1422D01*
D02*
X1378Y1322D02*
X978Y1422D01*
D02*
X879Y1422D02*
X879Y1322D01*
D02*
X879Y1322D02*
X879Y1313D01*
D02*
X1436Y921D02*
X1378Y921D01*
D02*
X2127Y1620D02*
X2278Y1620D01*
D02*
X2128Y1680D02*
X2127Y1620D01*
D02*
X1307Y2066D02*
X1277Y2070D01*
D02*
X1069Y1963D02*
X1124Y1952D01*
D02*
X2180Y1522D02*
X1986Y1522D01*
D02*
X2178Y563D02*
X2180Y1522D01*
D02*
X1277Y2070D02*
X1307Y2066D01*
D02*
X778Y1522D02*
X778Y2070D01*
D02*
X778Y2070D02*
X1277Y2070D01*
D02*
X1071Y1522D02*
X778Y1522D01*
D02*
X1779Y1922D02*
X2092Y1742D01*
D02*
X1266Y1935D02*
X1779Y1922D01*
D02*
X1277Y2070D02*
X778Y2070D01*
D02*
X778Y2070D02*
X778Y1313D01*
D02*
X1277Y2073D02*
X1308Y2068D01*
D02*
X1069Y2072D02*
X1277Y2073D01*
G54D18*
D02*
X2348Y722D02*
X2308Y722D01*
D02*
X2348Y622D02*
X2308Y622D01*
G54D17*
D02*
X2337Y522D02*
X2319Y522D01*
D02*
X2337Y822D02*
X2319Y822D01*
D02*
X2278Y421D02*
X1069Y422D01*
D02*
X2278Y480D02*
X2278Y421D01*
D02*
X987Y522D02*
X619Y522D01*
D02*
X378Y472D02*
X218Y432D01*
D02*
X987Y422D02*
X619Y422D01*
D02*
X538Y432D02*
X378Y472D01*
D02*
X1978Y522D02*
X1069Y522D01*
D02*
X1978Y923D02*
X1978Y522D01*
D02*
X1920Y922D02*
X1978Y923D01*
D02*
X2037Y522D02*
X1069Y522D01*
G54D18*
D02*
X1497Y1522D02*
X1175Y1522D01*
G54D19*
X2273Y1644D02*
X2282Y1644D01*
X2269Y1643D02*
X2286Y1643D01*
X2267Y1642D02*
X2288Y1642D01*
X2265Y1641D02*
X2290Y1641D01*
X2264Y1640D02*
X2291Y1640D01*
X2263Y1639D02*
X2292Y1639D01*
X2262Y1638D02*
X2294Y1638D01*
X2261Y1637D02*
X2295Y1637D01*
X2260Y1636D02*
X2295Y1636D01*
X2259Y1635D02*
X2296Y1635D01*
X2258Y1634D02*
X2297Y1634D01*
X2258Y1633D02*
X2298Y1633D01*
X2257Y1632D02*
X2298Y1632D01*
X2256Y1631D02*
X2299Y1631D01*
X2256Y1630D02*
X2299Y1630D01*
X2256Y1629D02*
X2299Y1629D01*
X2255Y1628D02*
X2300Y1628D01*
X2255Y1627D02*
X2300Y1627D01*
X2255Y1626D02*
X2300Y1626D01*
X2254Y1625D02*
X2301Y1625D01*
X2254Y1624D02*
X2301Y1624D01*
X2254Y1623D02*
X2301Y1623D01*
X2254Y1622D02*
X2301Y1622D01*
X2254Y1621D02*
X2301Y1621D01*
X2254Y1620D02*
X2301Y1620D01*
X2254Y1619D02*
X2301Y1619D01*
X2254Y1618D02*
X2301Y1618D01*
X2254Y1617D02*
X2301Y1617D01*
X2254Y1616D02*
X2301Y1616D01*
X2254Y1615D02*
X2301Y1615D01*
X2254Y1614D02*
X2301Y1614D01*
X2254Y1613D02*
X2301Y1613D01*
X2254Y1612D02*
X2301Y1612D01*
X2254Y1611D02*
X2301Y1611D01*
X2254Y1610D02*
X2301Y1610D01*
X2254Y1609D02*
X2301Y1609D01*
X2254Y1608D02*
X2301Y1608D01*
X2254Y1607D02*
X2301Y1607D01*
X2254Y1606D02*
X2301Y1606D01*
X2254Y1605D02*
X2301Y1605D01*
X2254Y1604D02*
X2301Y1604D01*
X2254Y1603D02*
X2301Y1603D01*
X2254Y1602D02*
X2301Y1602D01*
X2254Y1601D02*
X2301Y1601D01*
X2254Y1600D02*
X2301Y1600D01*
X2254Y1599D02*
X2301Y1599D01*
X2254Y1598D02*
X2301Y1598D01*
X2254Y1597D02*
X2301Y1597D01*
X2254Y1596D02*
X2301Y1596D01*
X2254Y1595D02*
X2301Y1595D01*
X2254Y1594D02*
X2301Y1594D01*
X2254Y1593D02*
X2301Y1593D01*
X2254Y1592D02*
X2301Y1592D01*
X2254Y1591D02*
X2301Y1591D01*
X2254Y1590D02*
X2301Y1590D01*
X2254Y1589D02*
X2301Y1589D01*
X2254Y1588D02*
X2301Y1588D01*
X2254Y1587D02*
X2301Y1587D01*
X2254Y1586D02*
X2301Y1586D01*
X2254Y1585D02*
X2301Y1585D01*
X2254Y1584D02*
X2301Y1584D01*
X2254Y1583D02*
X2301Y1583D01*
X2254Y1582D02*
X2301Y1582D01*
X2254Y1581D02*
X2301Y1581D01*
X2254Y1580D02*
X2301Y1580D01*
X2254Y1579D02*
X2301Y1579D01*
X2254Y1578D02*
X2301Y1578D01*
X2254Y1577D02*
X2301Y1577D01*
X2254Y1576D02*
X2301Y1576D01*
X2254Y1575D02*
X2301Y1575D01*
X2254Y1574D02*
X2301Y1574D01*
X2254Y1573D02*
X2301Y1573D01*
X2254Y1572D02*
X2301Y1572D01*
X2254Y1571D02*
X2301Y1571D01*
X2254Y1570D02*
X2301Y1570D01*
X2254Y1569D02*
X2301Y1569D01*
X2254Y1568D02*
X2301Y1568D01*
X2254Y1567D02*
X2301Y1567D01*
X2254Y1566D02*
X2301Y1566D01*
X2254Y1565D02*
X2301Y1565D01*
X2254Y1564D02*
X2301Y1564D01*
X2254Y1563D02*
X2301Y1563D01*
X2254Y1562D02*
X2301Y1562D01*
X2254Y1561D02*
X2301Y1561D01*
X2254Y1560D02*
X2301Y1560D01*
X2254Y1559D02*
X2301Y1559D01*
X2254Y1558D02*
X2301Y1558D01*
X2254Y1557D02*
X2301Y1557D01*
X2254Y1556D02*
X2301Y1556D01*
X2254Y1555D02*
X2301Y1555D01*
X2254Y1554D02*
X2301Y1554D01*
X2254Y1553D02*
X2301Y1553D01*
X2254Y1552D02*
X2301Y1552D01*
X2254Y1551D02*
X2301Y1551D01*
X2254Y1550D02*
X2301Y1550D01*
X2254Y1549D02*
X2301Y1549D01*
X2254Y1548D02*
X2301Y1548D01*
X2254Y1547D02*
X2301Y1547D01*
X2254Y1546D02*
X2301Y1546D01*
X2254Y1545D02*
X2301Y1545D01*
X2254Y1544D02*
X2301Y1544D01*
X2254Y1543D02*
X2301Y1543D01*
X2254Y1542D02*
X2301Y1542D01*
X2254Y1541D02*
X2301Y1541D01*
X2254Y1540D02*
X2301Y1540D01*
X2254Y1539D02*
X2301Y1539D01*
X2254Y1538D02*
X2301Y1538D01*
X2254Y1537D02*
X2301Y1537D01*
X2254Y1536D02*
X2301Y1536D01*
X2254Y1535D02*
X2301Y1535D01*
X2254Y1534D02*
X2301Y1534D01*
X2254Y1533D02*
X2301Y1533D01*
X2254Y1532D02*
X2301Y1532D01*
X2254Y1531D02*
X2301Y1531D01*
X2254Y1530D02*
X2301Y1530D01*
X2254Y1529D02*
X2301Y1529D01*
X2254Y1528D02*
X2301Y1528D01*
X2254Y1527D02*
X2301Y1527D01*
X2254Y1526D02*
X2301Y1526D01*
X2254Y1525D02*
X2301Y1525D01*
X2254Y1524D02*
X2301Y1524D01*
X2254Y1523D02*
X2301Y1523D01*
X2254Y1522D02*
X2301Y1522D01*
X2254Y1521D02*
X2301Y1521D01*
X2254Y1520D02*
X2301Y1520D01*
X2254Y1519D02*
X2301Y1519D01*
X2254Y1518D02*
X2301Y1518D01*
X2254Y1517D02*
X2301Y1517D01*
X2254Y1516D02*
X2301Y1516D01*
X2254Y1515D02*
X2301Y1515D01*
X2254Y1514D02*
X2301Y1514D01*
X2254Y1513D02*
X2301Y1513D01*
X2254Y1512D02*
X2301Y1512D01*
X2254Y1511D02*
X2301Y1511D01*
X2254Y1510D02*
X2301Y1510D01*
X2254Y1509D02*
X2301Y1509D01*
X2254Y1508D02*
X2301Y1508D01*
X2254Y1507D02*
X2301Y1507D01*
X2254Y1506D02*
X2301Y1506D01*
X2254Y1505D02*
X2301Y1505D01*
X2254Y1504D02*
X2301Y1504D01*
X2254Y1503D02*
X2301Y1503D01*
X2254Y1502D02*
X2301Y1502D01*
X2254Y1501D02*
X2301Y1501D01*
X2254Y1500D02*
X2301Y1500D01*
X2254Y1499D02*
X2301Y1499D01*
X2254Y1498D02*
X2301Y1498D01*
X2254Y1497D02*
X2301Y1497D01*
X2254Y1496D02*
X2301Y1496D01*
X2254Y1495D02*
X2301Y1495D01*
X2254Y1494D02*
X2301Y1494D01*
X2254Y1493D02*
X2301Y1493D01*
X2254Y1492D02*
X2301Y1492D01*
X2254Y1491D02*
X2301Y1491D01*
X2254Y1490D02*
X2301Y1490D01*
X2254Y1489D02*
X2301Y1489D01*
X2254Y1488D02*
X2301Y1488D01*
X2254Y1487D02*
X2301Y1487D01*
X2254Y1486D02*
X2301Y1486D01*
X2254Y1485D02*
X2301Y1485D01*
X2254Y1484D02*
X2301Y1484D01*
X2254Y1483D02*
X2301Y1483D01*
X2254Y1482D02*
X2301Y1482D01*
X2254Y1481D02*
X2301Y1481D01*
X2254Y1480D02*
X2301Y1480D01*
X2254Y1479D02*
X2301Y1479D01*
X2254Y1478D02*
X2301Y1478D01*
X2254Y1477D02*
X2301Y1477D01*
X2254Y1476D02*
X2301Y1476D01*
X2254Y1475D02*
X2301Y1475D01*
X2254Y1474D02*
X2301Y1474D01*
X2254Y1473D02*
X2301Y1473D01*
X2254Y1472D02*
X2301Y1472D01*
X2254Y1471D02*
X2301Y1471D01*
X2254Y1470D02*
X2301Y1470D01*
X2254Y1469D02*
X2301Y1469D01*
X2254Y1468D02*
X2301Y1468D01*
X2254Y1467D02*
X2301Y1467D01*
X2254Y1466D02*
X2301Y1466D01*
X2254Y1465D02*
X2301Y1465D01*
X2254Y1464D02*
X2301Y1464D01*
X2254Y1463D02*
X2301Y1463D01*
X2254Y1462D02*
X2301Y1462D01*
X2254Y1461D02*
X2301Y1461D01*
X2254Y1460D02*
X2301Y1460D01*
X2254Y1459D02*
X2301Y1459D01*
X2254Y1458D02*
X2301Y1458D01*
X2254Y1457D02*
X2301Y1457D01*
X2254Y1456D02*
X2301Y1456D01*
X2254Y1455D02*
X2301Y1455D01*
X2254Y1454D02*
X2301Y1454D01*
X2254Y1453D02*
X2301Y1453D01*
X2254Y1452D02*
X2301Y1452D01*
X2254Y1451D02*
X2301Y1451D01*
X2254Y1450D02*
X2301Y1450D01*
X2254Y1449D02*
X2301Y1449D01*
X2254Y1448D02*
X2301Y1448D01*
X2254Y1447D02*
X2301Y1447D01*
X2254Y1446D02*
X2301Y1446D01*
X2254Y1445D02*
X2301Y1445D01*
X2254Y1444D02*
X2301Y1444D01*
X2254Y1443D02*
X2301Y1443D01*
X2254Y1442D02*
X2301Y1442D01*
X2254Y1441D02*
X2301Y1441D01*
X2254Y1440D02*
X2301Y1440D01*
X2254Y1439D02*
X2301Y1439D01*
X2254Y1438D02*
X2301Y1438D01*
X2254Y1437D02*
X2301Y1437D01*
X2254Y1436D02*
X2301Y1436D01*
X2254Y1435D02*
X2301Y1435D01*
X2254Y1434D02*
X2301Y1434D01*
X2254Y1433D02*
X2301Y1433D01*
X2254Y1432D02*
X2301Y1432D01*
X2254Y1431D02*
X2301Y1431D01*
X2254Y1430D02*
X2301Y1430D01*
X2254Y1429D02*
X2301Y1429D01*
X2254Y1428D02*
X2301Y1428D01*
X2254Y1427D02*
X2301Y1427D01*
X2254Y1426D02*
X2301Y1426D01*
X2254Y1425D02*
X2301Y1425D01*
X2254Y1424D02*
X2301Y1424D01*
X2254Y1423D02*
X2301Y1423D01*
X2254Y1422D02*
X2301Y1422D01*
X2254Y1421D02*
X2301Y1421D01*
X2254Y1420D02*
X2301Y1420D01*
X2254Y1419D02*
X2301Y1419D01*
X2254Y1418D02*
X2301Y1418D01*
X2254Y1417D02*
X2301Y1417D01*
X2254Y1416D02*
X2301Y1416D01*
X2254Y1415D02*
X2301Y1415D01*
X2254Y1414D02*
X2301Y1414D01*
X2254Y1413D02*
X2301Y1413D01*
X2254Y1412D02*
X2301Y1412D01*
X2254Y1411D02*
X2301Y1411D01*
X2254Y1410D02*
X2301Y1410D01*
X2254Y1409D02*
X2301Y1409D01*
X2254Y1408D02*
X2301Y1408D01*
X2254Y1407D02*
X2301Y1407D01*
X2254Y1406D02*
X2301Y1406D01*
X2254Y1405D02*
X2301Y1405D01*
X2254Y1404D02*
X2301Y1404D01*
X2254Y1403D02*
X2301Y1403D01*
X2254Y1402D02*
X2301Y1402D01*
X2254Y1401D02*
X2301Y1401D01*
X2254Y1400D02*
X2301Y1400D01*
X2254Y1399D02*
X2301Y1399D01*
X2254Y1398D02*
X2301Y1398D01*
X2254Y1397D02*
X2301Y1397D01*
X2254Y1396D02*
X2301Y1396D01*
X2254Y1395D02*
X2301Y1395D01*
X2254Y1394D02*
X2301Y1394D01*
X2254Y1393D02*
X2301Y1393D01*
X2254Y1392D02*
X2301Y1392D01*
X2254Y1391D02*
X2301Y1391D01*
X2254Y1390D02*
X2301Y1390D01*
X2254Y1389D02*
X2301Y1389D01*
X2254Y1388D02*
X2301Y1388D01*
X2254Y1387D02*
X2301Y1387D01*
X2254Y1386D02*
X2301Y1386D01*
X2254Y1385D02*
X2301Y1385D01*
X2254Y1384D02*
X2301Y1384D01*
X2254Y1383D02*
X2301Y1383D01*
X2254Y1382D02*
X2301Y1382D01*
X2254Y1381D02*
X2301Y1381D01*
X2254Y1380D02*
X2301Y1380D01*
X2254Y1379D02*
X2301Y1379D01*
X2254Y1378D02*
X2301Y1378D01*
X2254Y1377D02*
X2301Y1377D01*
X2254Y1376D02*
X2301Y1376D01*
X2254Y1375D02*
X2301Y1375D01*
X2254Y1374D02*
X2301Y1374D01*
X2254Y1373D02*
X2301Y1373D01*
X2254Y1372D02*
X2301Y1372D01*
X2254Y1371D02*
X2301Y1371D01*
X2254Y1370D02*
X2301Y1370D01*
X2254Y1369D02*
X2301Y1369D01*
X2254Y1368D02*
X2301Y1368D01*
X2254Y1367D02*
X2301Y1367D01*
X2254Y1366D02*
X2301Y1366D01*
X2254Y1365D02*
X2301Y1365D01*
X2254Y1364D02*
X2301Y1364D01*
X2254Y1363D02*
X2301Y1363D01*
X2254Y1362D02*
X2301Y1362D01*
X2254Y1361D02*
X2301Y1361D01*
X2254Y1360D02*
X2301Y1360D01*
X2254Y1359D02*
X2301Y1359D01*
X2254Y1358D02*
X2301Y1358D01*
X2254Y1357D02*
X2301Y1357D01*
X2254Y1356D02*
X2301Y1356D01*
X2254Y1355D02*
X2301Y1355D01*
X2254Y1354D02*
X2301Y1354D01*
X2254Y1353D02*
X2301Y1353D01*
X2254Y1352D02*
X2301Y1352D01*
X2254Y1351D02*
X2301Y1351D01*
X2254Y1350D02*
X2301Y1350D01*
X2254Y1349D02*
X2301Y1349D01*
X2254Y1348D02*
X2301Y1348D01*
X2254Y1347D02*
X2301Y1347D01*
X2254Y1346D02*
X2301Y1346D01*
X2254Y1345D02*
X2301Y1345D01*
X2254Y1344D02*
X2301Y1344D01*
X2254Y1343D02*
X2301Y1343D01*
X2254Y1342D02*
X2301Y1342D01*
X2254Y1341D02*
X2301Y1341D01*
X2254Y1340D02*
X2301Y1340D01*
X2254Y1339D02*
X2301Y1339D01*
X2254Y1338D02*
X2301Y1338D01*
X2254Y1337D02*
X2301Y1337D01*
X2254Y1336D02*
X2301Y1336D01*
X2254Y1335D02*
X2301Y1335D01*
X2254Y1334D02*
X2301Y1334D01*
X2254Y1333D02*
X2301Y1333D01*
X2254Y1332D02*
X2301Y1332D01*
X2254Y1331D02*
X2301Y1331D01*
X2254Y1330D02*
X2301Y1330D01*
X2254Y1329D02*
X2301Y1329D01*
X2254Y1328D02*
X2301Y1328D01*
X2254Y1327D02*
X2301Y1327D01*
X2254Y1326D02*
X2301Y1326D01*
X2254Y1325D02*
X2301Y1325D01*
X2254Y1324D02*
X2301Y1324D01*
X2254Y1323D02*
X2301Y1323D01*
X2254Y1322D02*
X2301Y1322D01*
X2254Y1321D02*
X2301Y1321D01*
X2254Y1320D02*
X2301Y1320D01*
X2254Y1319D02*
X2301Y1319D01*
X2254Y1318D02*
X2301Y1318D01*
X2254Y1317D02*
X2301Y1317D01*
X2254Y1316D02*
X2301Y1316D01*
X2254Y1315D02*
X2301Y1315D01*
X2254Y1314D02*
X2301Y1314D01*
X2254Y1313D02*
X2301Y1313D01*
X2254Y1312D02*
X2301Y1312D01*
X2254Y1311D02*
X2301Y1311D01*
X2254Y1310D02*
X2301Y1310D01*
X2254Y1309D02*
X2301Y1309D01*
X2254Y1308D02*
X2301Y1308D01*
X2254Y1307D02*
X2301Y1307D01*
X2254Y1306D02*
X2301Y1306D01*
X2254Y1305D02*
X2301Y1305D01*
X2254Y1304D02*
X2301Y1304D01*
X2254Y1303D02*
X2301Y1303D01*
X2254Y1302D02*
X2301Y1302D01*
X2254Y1301D02*
X2301Y1301D01*
X2254Y1300D02*
X2301Y1300D01*
X2254Y1299D02*
X2301Y1299D01*
X2254Y1298D02*
X2301Y1298D01*
X2254Y1297D02*
X2301Y1297D01*
X2254Y1296D02*
X2301Y1296D01*
X2254Y1295D02*
X2301Y1295D01*
X2254Y1294D02*
X2301Y1294D01*
X2254Y1293D02*
X2301Y1293D01*
X2254Y1292D02*
X2301Y1292D01*
X2254Y1291D02*
X2301Y1291D01*
X2254Y1290D02*
X2301Y1290D01*
X2254Y1289D02*
X2301Y1289D01*
X2254Y1288D02*
X2301Y1288D01*
X2254Y1287D02*
X2301Y1287D01*
X2254Y1286D02*
X2301Y1286D01*
X2254Y1285D02*
X2301Y1285D01*
X2254Y1284D02*
X2301Y1284D01*
X2254Y1283D02*
X2301Y1283D01*
X2254Y1282D02*
X2301Y1282D01*
X2254Y1281D02*
X2301Y1281D01*
X2254Y1280D02*
X2301Y1280D01*
X2254Y1279D02*
X2301Y1279D01*
X2254Y1278D02*
X2301Y1278D01*
X2254Y1277D02*
X2301Y1277D01*
X2254Y1276D02*
X2301Y1276D01*
X2254Y1275D02*
X2301Y1275D01*
X2254Y1274D02*
X2301Y1274D01*
X2254Y1273D02*
X2301Y1273D01*
X2254Y1272D02*
X2301Y1272D01*
X2254Y1271D02*
X2301Y1271D01*
X2254Y1270D02*
X2301Y1270D01*
X2254Y1269D02*
X2301Y1269D01*
X2254Y1268D02*
X2301Y1268D01*
X2254Y1267D02*
X2301Y1267D01*
X2254Y1266D02*
X2301Y1266D01*
X2254Y1265D02*
X2301Y1265D01*
X2254Y1264D02*
X2301Y1264D01*
X2254Y1263D02*
X2301Y1263D01*
X2254Y1262D02*
X2301Y1262D01*
X2254Y1261D02*
X2301Y1261D01*
X2254Y1260D02*
X2301Y1260D01*
X2254Y1259D02*
X2301Y1259D01*
X2254Y1258D02*
X2301Y1258D01*
X2254Y1257D02*
X2301Y1257D01*
X2254Y1256D02*
X2301Y1256D01*
X2254Y1255D02*
X2301Y1255D01*
X2254Y1254D02*
X2301Y1254D01*
X2254Y1253D02*
X2301Y1253D01*
X2254Y1252D02*
X2301Y1252D01*
X2254Y1251D02*
X2301Y1251D01*
X2254Y1250D02*
X2301Y1250D01*
X2254Y1249D02*
X2301Y1249D01*
X2254Y1248D02*
X2301Y1248D01*
X2254Y1247D02*
X2301Y1247D01*
X2254Y1246D02*
X2301Y1246D01*
X2254Y1245D02*
X2301Y1245D01*
X2254Y1244D02*
X2301Y1244D01*
X2254Y1243D02*
X2301Y1243D01*
X2254Y1242D02*
X2301Y1242D01*
X2254Y1241D02*
X2301Y1241D01*
X2254Y1240D02*
X2301Y1240D01*
X2254Y1239D02*
X2301Y1239D01*
X2254Y1238D02*
X2301Y1238D01*
X2254Y1237D02*
X2301Y1237D01*
X2254Y1236D02*
X2301Y1236D01*
X2254Y1235D02*
X2301Y1235D01*
X2254Y1234D02*
X2301Y1234D01*
X2254Y1233D02*
X2301Y1233D01*
X2254Y1232D02*
X2301Y1232D01*
X2254Y1231D02*
X2301Y1231D01*
X2254Y1230D02*
X2301Y1230D01*
X2254Y1229D02*
X2301Y1229D01*
X2254Y1228D02*
X2301Y1228D01*
X2254Y1227D02*
X2301Y1227D01*
X2254Y1226D02*
X2301Y1226D01*
X2254Y1225D02*
X2301Y1225D01*
X2254Y1224D02*
X2301Y1224D01*
X2254Y1223D02*
X2301Y1223D01*
X2254Y1222D02*
X2301Y1222D01*
X2254Y1221D02*
X2301Y1221D01*
X2254Y1220D02*
X2301Y1220D01*
X2254Y1219D02*
X2301Y1219D01*
X2254Y1218D02*
X2301Y1218D01*
X2254Y1217D02*
X2301Y1217D01*
X2254Y1216D02*
X2301Y1216D01*
X2254Y1215D02*
X2301Y1215D01*
X2254Y1214D02*
X2301Y1214D01*
X2254Y1213D02*
X2301Y1213D01*
X2254Y1212D02*
X2301Y1212D01*
X2254Y1211D02*
X2301Y1211D01*
X2254Y1210D02*
X2301Y1210D01*
X2254Y1209D02*
X2301Y1209D01*
X2254Y1208D02*
X2301Y1208D01*
X2254Y1207D02*
X2301Y1207D01*
X2254Y1206D02*
X2301Y1206D01*
X2254Y1205D02*
X2301Y1205D01*
X2254Y1204D02*
X2301Y1204D01*
X2396Y1204D02*
X2459Y1204D01*
X2254Y1203D02*
X2301Y1203D01*
X2396Y1203D02*
X2460Y1203D01*
X2254Y1202D02*
X2301Y1202D01*
X2396Y1202D02*
X2460Y1202D01*
X2254Y1201D02*
X2301Y1201D01*
X2396Y1201D02*
X2460Y1201D01*
X2254Y1200D02*
X2301Y1200D01*
X2396Y1200D02*
X2460Y1200D01*
X2254Y1199D02*
X2301Y1199D01*
X2396Y1199D02*
X2460Y1199D01*
X2254Y1198D02*
X2301Y1198D01*
X2396Y1198D02*
X2460Y1198D01*
X2254Y1197D02*
X2301Y1197D01*
X2396Y1197D02*
X2460Y1197D01*
X2254Y1196D02*
X2301Y1196D01*
X2396Y1196D02*
X2460Y1196D01*
X2254Y1195D02*
X2301Y1195D01*
X2396Y1195D02*
X2460Y1195D01*
X2254Y1194D02*
X2301Y1194D01*
X2396Y1194D02*
X2460Y1194D01*
X2254Y1193D02*
X2301Y1193D01*
X2396Y1193D02*
X2460Y1193D01*
X2254Y1192D02*
X2301Y1192D01*
X2396Y1192D02*
X2460Y1192D01*
X2254Y1191D02*
X2301Y1191D01*
X2396Y1191D02*
X2460Y1191D01*
X2254Y1190D02*
X2301Y1190D01*
X2396Y1190D02*
X2460Y1190D01*
X2254Y1189D02*
X2301Y1189D01*
X2396Y1189D02*
X2460Y1189D01*
X2254Y1188D02*
X2301Y1188D01*
X2396Y1188D02*
X2460Y1188D01*
X2254Y1187D02*
X2301Y1187D01*
X2396Y1187D02*
X2460Y1187D01*
X2254Y1186D02*
X2301Y1186D01*
X2396Y1186D02*
X2460Y1186D01*
X2254Y1185D02*
X2301Y1185D01*
X2396Y1185D02*
X2423Y1185D01*
X2432Y1185D02*
X2460Y1185D01*
X2254Y1184D02*
X2301Y1184D01*
X2396Y1184D02*
X2420Y1184D01*
X2435Y1184D02*
X2460Y1184D01*
X2254Y1183D02*
X2301Y1183D01*
X2396Y1183D02*
X2419Y1183D01*
X2436Y1183D02*
X2460Y1183D01*
X2254Y1182D02*
X2301Y1182D01*
X2396Y1182D02*
X2418Y1182D01*
X2437Y1182D02*
X2460Y1182D01*
X2254Y1181D02*
X2301Y1181D01*
X2396Y1181D02*
X2417Y1181D01*
X2438Y1181D02*
X2460Y1181D01*
X2254Y1180D02*
X2301Y1180D01*
X2396Y1180D02*
X2416Y1180D01*
X2439Y1180D02*
X2460Y1180D01*
X2254Y1179D02*
X2301Y1179D01*
X2396Y1179D02*
X2415Y1179D01*
X2440Y1179D02*
X2460Y1179D01*
X2254Y1178D02*
X2301Y1178D01*
X2396Y1178D02*
X2415Y1178D01*
X2440Y1178D02*
X2460Y1178D01*
X2254Y1177D02*
X2301Y1177D01*
X2396Y1177D02*
X2414Y1177D01*
X2441Y1177D02*
X2460Y1177D01*
X2254Y1176D02*
X2301Y1176D01*
X2396Y1176D02*
X2414Y1176D01*
X2441Y1176D02*
X2460Y1176D01*
X2254Y1175D02*
X2301Y1175D01*
X2396Y1175D02*
X2414Y1175D01*
X2441Y1175D02*
X2460Y1175D01*
X2254Y1174D02*
X2301Y1174D01*
X2396Y1174D02*
X2413Y1174D01*
X2442Y1174D02*
X2460Y1174D01*
X2254Y1173D02*
X2301Y1173D01*
X2396Y1173D02*
X2413Y1173D01*
X2442Y1173D02*
X2460Y1173D01*
X2254Y1172D02*
X2301Y1172D01*
X2396Y1172D02*
X2413Y1172D01*
X2442Y1172D02*
X2460Y1172D01*
X2254Y1171D02*
X2301Y1171D01*
X2396Y1171D02*
X2413Y1171D01*
X2442Y1171D02*
X2460Y1171D01*
X2254Y1170D02*
X2301Y1170D01*
X2396Y1170D02*
X2413Y1170D01*
X2442Y1170D02*
X2460Y1170D01*
X2254Y1169D02*
X2301Y1169D01*
X2396Y1169D02*
X2414Y1169D01*
X2441Y1169D02*
X2460Y1169D01*
X2254Y1168D02*
X2301Y1168D01*
X2396Y1168D02*
X2414Y1168D01*
X2441Y1168D02*
X2460Y1168D01*
X2254Y1167D02*
X2301Y1167D01*
X2396Y1167D02*
X2414Y1167D01*
X2441Y1167D02*
X2460Y1167D01*
X2254Y1166D02*
X2301Y1166D01*
X2396Y1166D02*
X2415Y1166D01*
X2440Y1166D02*
X2460Y1166D01*
X2254Y1165D02*
X2301Y1165D01*
X2396Y1165D02*
X2415Y1165D01*
X2440Y1165D02*
X2460Y1165D01*
X2254Y1164D02*
X2301Y1164D01*
X2396Y1164D02*
X2416Y1164D01*
X2439Y1164D02*
X2460Y1164D01*
X2254Y1163D02*
X2301Y1163D01*
X2396Y1163D02*
X2417Y1163D01*
X2438Y1163D02*
X2460Y1163D01*
X2254Y1162D02*
X2301Y1162D01*
X2396Y1162D02*
X2417Y1162D01*
X2438Y1162D02*
X2460Y1162D01*
X2254Y1161D02*
X2301Y1161D01*
X2396Y1161D02*
X2419Y1161D01*
X2436Y1161D02*
X2460Y1161D01*
X2254Y1160D02*
X2301Y1160D01*
X2396Y1160D02*
X2420Y1160D01*
X2435Y1160D02*
X2460Y1160D01*
X2254Y1159D02*
X2301Y1159D01*
X2396Y1159D02*
X2423Y1159D01*
X2433Y1159D02*
X2460Y1159D01*
X2254Y1158D02*
X2301Y1158D01*
X2396Y1158D02*
X2460Y1158D01*
X2254Y1157D02*
X2301Y1157D01*
X2396Y1157D02*
X2460Y1157D01*
X2254Y1156D02*
X2301Y1156D01*
X2396Y1156D02*
X2460Y1156D01*
X2254Y1155D02*
X2301Y1155D01*
X2396Y1155D02*
X2460Y1155D01*
X2254Y1154D02*
X2301Y1154D01*
X2396Y1154D02*
X2460Y1154D01*
X2254Y1153D02*
X2301Y1153D01*
X2396Y1153D02*
X2460Y1153D01*
X2254Y1152D02*
X2301Y1152D01*
X2396Y1152D02*
X2460Y1152D01*
X2254Y1151D02*
X2301Y1151D01*
X2396Y1151D02*
X2460Y1151D01*
X2254Y1150D02*
X2301Y1150D01*
X2396Y1150D02*
X2460Y1150D01*
X2254Y1149D02*
X2301Y1149D01*
X2396Y1149D02*
X2460Y1149D01*
X2254Y1148D02*
X2301Y1148D01*
X2396Y1148D02*
X2460Y1148D01*
X2254Y1147D02*
X2301Y1147D01*
X2396Y1147D02*
X2460Y1147D01*
X2254Y1146D02*
X2301Y1146D01*
X2396Y1146D02*
X2460Y1146D01*
X2254Y1145D02*
X2301Y1145D01*
X2396Y1145D02*
X2460Y1145D01*
X2254Y1144D02*
X2301Y1144D01*
X2396Y1144D02*
X2460Y1144D01*
X2254Y1143D02*
X2301Y1143D01*
X2396Y1143D02*
X2460Y1143D01*
X2254Y1142D02*
X2301Y1142D01*
X2396Y1142D02*
X2460Y1142D01*
X2254Y1141D02*
X2301Y1141D01*
X2396Y1141D02*
X2460Y1141D01*
X2254Y1140D02*
X2301Y1140D01*
X2396Y1140D02*
X2460Y1140D01*
X2254Y1139D02*
X2301Y1139D01*
X2254Y1138D02*
X2301Y1138D01*
X2254Y1137D02*
X2301Y1137D01*
X2254Y1136D02*
X2301Y1136D01*
X2254Y1135D02*
X2301Y1135D01*
X2254Y1134D02*
X2301Y1134D01*
X2254Y1133D02*
X2301Y1133D01*
X2254Y1132D02*
X2301Y1132D01*
X2254Y1131D02*
X2301Y1131D01*
X2254Y1130D02*
X2301Y1130D01*
X2254Y1129D02*
X2301Y1129D01*
X2254Y1128D02*
X2301Y1128D01*
X2254Y1127D02*
X2301Y1127D01*
X2254Y1126D02*
X2301Y1126D01*
X2254Y1125D02*
X2301Y1125D01*
X2254Y1124D02*
X2301Y1124D01*
X2254Y1123D02*
X2301Y1123D01*
X2254Y1122D02*
X2301Y1122D01*
X2254Y1121D02*
X2301Y1121D01*
X2254Y1120D02*
X2301Y1120D01*
X2254Y1119D02*
X2301Y1119D01*
X2254Y1118D02*
X2301Y1118D01*
X2254Y1117D02*
X2301Y1117D01*
X2254Y1116D02*
X2301Y1116D01*
X2254Y1115D02*
X2301Y1115D01*
X2254Y1114D02*
X2301Y1114D01*
X2254Y1113D02*
X2301Y1113D01*
X2254Y1112D02*
X2301Y1112D01*
X2254Y1111D02*
X2301Y1111D01*
X2254Y1110D02*
X2301Y1110D01*
X2254Y1109D02*
X2301Y1109D01*
X2254Y1108D02*
X2301Y1108D01*
X2254Y1107D02*
X2301Y1107D01*
X2254Y1106D02*
X2301Y1106D01*
X2254Y1105D02*
X2301Y1105D01*
X2254Y1104D02*
X2301Y1104D01*
X2254Y1103D02*
X2301Y1103D01*
X2254Y1102D02*
X2301Y1102D01*
X2254Y1101D02*
X2301Y1101D01*
X2254Y1100D02*
X2301Y1100D01*
X2254Y1099D02*
X2301Y1099D01*
X2254Y1098D02*
X2301Y1098D01*
X2254Y1097D02*
X2301Y1097D01*
X2254Y1096D02*
X2301Y1096D01*
X2254Y1095D02*
X2301Y1095D01*
X2254Y1094D02*
X2301Y1094D01*
X2254Y1093D02*
X2301Y1093D01*
X2254Y1092D02*
X2301Y1092D01*
X2254Y1091D02*
X2301Y1091D01*
X2254Y1090D02*
X2301Y1090D01*
X2254Y1089D02*
X2301Y1089D01*
X2254Y1088D02*
X2301Y1088D01*
X2254Y1087D02*
X2301Y1087D01*
X2254Y1086D02*
X2301Y1086D01*
X2254Y1085D02*
X2301Y1085D01*
X2254Y1084D02*
X2301Y1084D01*
X2254Y1083D02*
X2301Y1083D01*
X2254Y1082D02*
X2301Y1082D01*
X2254Y1081D02*
X2301Y1081D01*
X2254Y1080D02*
X2301Y1080D01*
X2254Y1079D02*
X2301Y1079D01*
X2254Y1078D02*
X2301Y1078D01*
X2254Y1077D02*
X2301Y1077D01*
X2254Y1076D02*
X2301Y1076D01*
X2254Y1075D02*
X2301Y1075D01*
X2254Y1074D02*
X2301Y1074D01*
X2254Y1073D02*
X2301Y1073D01*
X2254Y1072D02*
X2301Y1072D01*
X2254Y1071D02*
X2301Y1071D01*
X2254Y1070D02*
X2301Y1070D01*
X2254Y1069D02*
X2301Y1069D01*
X2254Y1068D02*
X2301Y1068D01*
X2254Y1067D02*
X2301Y1067D01*
X2254Y1066D02*
X2301Y1066D01*
X2254Y1065D02*
X2301Y1065D01*
X2254Y1064D02*
X2301Y1064D01*
X2254Y1063D02*
X2301Y1063D01*
X2254Y1062D02*
X2301Y1062D01*
X2254Y1061D02*
X2301Y1061D01*
X2254Y1060D02*
X2301Y1060D01*
X2254Y1059D02*
X2301Y1059D01*
X2254Y1058D02*
X2301Y1058D01*
X2254Y1057D02*
X2301Y1057D01*
X2254Y1056D02*
X2301Y1056D01*
X2254Y1055D02*
X2301Y1055D01*
X2254Y1054D02*
X2301Y1054D01*
X2254Y1053D02*
X2301Y1053D01*
X2254Y1052D02*
X2301Y1052D01*
X2254Y1051D02*
X2301Y1051D01*
X2254Y1050D02*
X2301Y1050D01*
X2254Y1049D02*
X2301Y1049D01*
X2254Y1048D02*
X2301Y1048D01*
X2254Y1047D02*
X2301Y1047D01*
X2254Y1046D02*
X2301Y1046D01*
X2254Y1045D02*
X2301Y1045D01*
X2254Y1044D02*
X2301Y1044D01*
X2254Y1043D02*
X2301Y1043D01*
X2254Y1042D02*
X2301Y1042D01*
X2254Y1041D02*
X2301Y1041D01*
X2254Y1040D02*
X2301Y1040D01*
X2254Y1039D02*
X2301Y1039D01*
X2254Y1038D02*
X2301Y1038D01*
X2254Y1037D02*
X2301Y1037D01*
X2254Y1036D02*
X2301Y1036D01*
X2254Y1035D02*
X2301Y1035D01*
X2254Y1034D02*
X2301Y1034D01*
X2254Y1033D02*
X2301Y1033D01*
X2254Y1032D02*
X2301Y1032D01*
X2254Y1031D02*
X2301Y1031D01*
X2254Y1030D02*
X2301Y1030D01*
X2254Y1029D02*
X2301Y1029D01*
X2254Y1028D02*
X2301Y1028D01*
X2254Y1027D02*
X2301Y1027D01*
X2254Y1026D02*
X2301Y1026D01*
X2254Y1025D02*
X2301Y1025D01*
X2254Y1024D02*
X2301Y1024D01*
X2254Y1023D02*
X2301Y1023D01*
X2254Y1022D02*
X2301Y1022D01*
X2254Y1021D02*
X2301Y1021D01*
X2254Y1020D02*
X2301Y1020D01*
X2254Y1019D02*
X2301Y1019D01*
X2254Y1018D02*
X2301Y1018D01*
X2254Y1017D02*
X2301Y1017D01*
X2254Y1016D02*
X2301Y1016D01*
X2254Y1015D02*
X2301Y1015D01*
X2254Y1014D02*
X2301Y1014D01*
X2254Y1013D02*
X2301Y1013D01*
X2254Y1012D02*
X2301Y1012D01*
X2254Y1011D02*
X2301Y1011D01*
X2254Y1010D02*
X2301Y1010D01*
X2254Y1009D02*
X2301Y1009D01*
X2254Y1008D02*
X2301Y1008D01*
X2254Y1007D02*
X2301Y1007D01*
X2254Y1006D02*
X2301Y1006D01*
X2254Y1005D02*
X2301Y1005D01*
X2254Y1004D02*
X2301Y1004D01*
X2254Y1003D02*
X2301Y1003D01*
X2254Y1002D02*
X2301Y1002D01*
X2254Y1001D02*
X2301Y1001D01*
X2254Y1000D02*
X2301Y1000D01*
X2254Y999D02*
X2301Y999D01*
X2254Y998D02*
X2301Y998D01*
X2254Y997D02*
X2301Y997D01*
X2254Y996D02*
X2301Y996D01*
X2254Y995D02*
X2301Y995D01*
X2254Y994D02*
X2301Y994D01*
X2254Y993D02*
X2301Y993D01*
X2254Y992D02*
X2301Y992D01*
X2254Y991D02*
X2301Y991D01*
X2254Y990D02*
X2301Y990D01*
X2254Y989D02*
X2301Y989D01*
X2254Y988D02*
X2301Y988D01*
X2254Y987D02*
X2301Y987D01*
X2254Y986D02*
X2301Y986D01*
X2254Y985D02*
X2301Y985D01*
X2254Y984D02*
X2301Y984D01*
X2254Y983D02*
X2301Y983D01*
X2254Y982D02*
X2301Y982D01*
X2254Y981D02*
X2301Y981D01*
X2254Y980D02*
X2301Y980D01*
X2254Y979D02*
X2301Y979D01*
X2254Y978D02*
X2301Y978D01*
X2254Y977D02*
X2301Y977D01*
X2254Y976D02*
X2301Y976D01*
X2254Y975D02*
X2301Y975D01*
X2254Y974D02*
X2301Y974D01*
X2254Y973D02*
X2301Y973D01*
X2254Y972D02*
X2301Y972D01*
X2254Y971D02*
X2301Y971D01*
X2254Y970D02*
X2301Y970D01*
X2254Y969D02*
X2301Y969D01*
X2254Y968D02*
X2301Y968D01*
X2254Y967D02*
X2301Y967D01*
X2254Y966D02*
X2301Y966D01*
X2254Y965D02*
X2301Y965D01*
X2254Y964D02*
X2301Y964D01*
X2254Y963D02*
X2301Y963D01*
X2254Y962D02*
X2301Y962D01*
X2254Y961D02*
X2301Y961D01*
X2254Y960D02*
X2301Y960D01*
X2254Y959D02*
X2301Y959D01*
X2254Y958D02*
X2301Y958D01*
X2254Y957D02*
X2301Y957D01*
X2254Y956D02*
X2301Y956D01*
X2254Y955D02*
X2301Y955D01*
X2254Y954D02*
X2301Y954D01*
X2254Y953D02*
X2301Y953D01*
X2254Y952D02*
X2301Y952D01*
X2254Y951D02*
X2301Y951D01*
X2254Y950D02*
X2301Y950D01*
X2254Y949D02*
X2301Y949D01*
X2254Y948D02*
X2301Y948D01*
X2254Y947D02*
X2301Y947D01*
X2254Y946D02*
X2301Y946D01*
X2254Y945D02*
X2301Y945D01*
X2254Y944D02*
X2301Y944D01*
X2254Y943D02*
X2301Y943D01*
X2254Y942D02*
X2301Y942D01*
X2254Y941D02*
X2301Y941D01*
X2254Y940D02*
X2301Y940D01*
X2254Y939D02*
X2301Y939D01*
X2254Y938D02*
X2301Y938D01*
X2254Y937D02*
X2301Y937D01*
X2254Y936D02*
X2301Y936D01*
X2254Y935D02*
X2301Y935D01*
X2254Y934D02*
X2301Y934D01*
X2254Y933D02*
X2301Y933D01*
X2254Y932D02*
X2301Y932D01*
X2254Y931D02*
X2301Y931D01*
X2254Y930D02*
X2301Y930D01*
X2254Y929D02*
X2301Y929D01*
X2254Y928D02*
X2301Y928D01*
X2254Y927D02*
X2301Y927D01*
X2254Y926D02*
X2301Y926D01*
X2254Y925D02*
X2301Y925D01*
X2254Y924D02*
X2301Y924D01*
X2254Y923D02*
X2301Y923D01*
X2254Y922D02*
X2301Y922D01*
X2254Y921D02*
X2301Y921D01*
X2254Y920D02*
X2301Y920D01*
X2254Y919D02*
X2301Y919D01*
X2254Y918D02*
X2301Y918D01*
X2254Y917D02*
X2301Y917D01*
X2254Y916D02*
X2301Y916D01*
X2254Y915D02*
X2301Y915D01*
X2254Y914D02*
X2301Y914D01*
X2254Y913D02*
X2301Y913D01*
X2254Y912D02*
X2301Y912D01*
X2254Y911D02*
X2301Y911D01*
X2254Y910D02*
X2301Y910D01*
X2254Y909D02*
X2301Y909D01*
X2254Y908D02*
X2301Y908D01*
X2254Y907D02*
X2301Y907D01*
X2254Y906D02*
X2301Y906D01*
X2254Y905D02*
X2301Y905D01*
X2254Y904D02*
X2301Y904D01*
X2254Y903D02*
X2301Y903D01*
X2254Y902D02*
X2301Y902D01*
X2254Y901D02*
X2301Y901D01*
X2254Y900D02*
X2301Y900D01*
X2254Y899D02*
X2301Y899D01*
X2254Y898D02*
X2301Y898D01*
X2254Y897D02*
X2301Y897D01*
X2254Y896D02*
X2301Y896D01*
X2254Y895D02*
X2301Y895D01*
X2254Y894D02*
X2301Y894D01*
X2254Y893D02*
X2301Y893D01*
X2254Y892D02*
X2301Y892D01*
X2254Y891D02*
X2301Y891D01*
X2254Y890D02*
X2301Y890D01*
X2254Y889D02*
X2301Y889D01*
X2254Y888D02*
X2301Y888D01*
X2254Y887D02*
X2301Y887D01*
X2254Y886D02*
X2301Y886D01*
X2254Y885D02*
X2301Y885D01*
X2254Y884D02*
X2301Y884D01*
X2254Y883D02*
X2301Y883D01*
X2254Y882D02*
X2301Y882D01*
X2254Y881D02*
X2301Y881D01*
X2254Y880D02*
X2301Y880D01*
X2254Y879D02*
X2301Y879D01*
X2254Y878D02*
X2301Y878D01*
X2254Y877D02*
X2301Y877D01*
X2254Y876D02*
X2301Y876D01*
X2254Y875D02*
X2301Y875D01*
X2254Y874D02*
X2301Y874D01*
X2254Y873D02*
X2301Y873D01*
X2254Y872D02*
X2301Y872D01*
X2254Y871D02*
X2301Y871D01*
X2254Y870D02*
X2301Y870D01*
X2254Y869D02*
X2301Y869D01*
X2254Y868D02*
X2301Y868D01*
X2254Y867D02*
X2301Y867D01*
X2254Y866D02*
X2301Y866D01*
X2254Y865D02*
X2301Y865D01*
X2254Y864D02*
X2301Y864D01*
X2254Y863D02*
X2301Y863D01*
X2254Y862D02*
X2301Y862D01*
X2254Y861D02*
X2301Y861D01*
X2254Y860D02*
X2301Y860D01*
X2254Y859D02*
X2301Y859D01*
X2254Y858D02*
X2301Y858D01*
X2254Y857D02*
X2301Y857D01*
X2254Y856D02*
X2301Y856D01*
X2254Y855D02*
X2301Y855D01*
X2254Y854D02*
X2301Y854D01*
X2254Y853D02*
X2301Y853D01*
X2254Y852D02*
X2301Y852D01*
X2254Y851D02*
X2301Y851D01*
X2254Y850D02*
X2301Y850D01*
X2254Y849D02*
X2301Y849D01*
X2254Y848D02*
X2301Y848D01*
X2254Y847D02*
X2301Y847D01*
X2254Y846D02*
X2301Y846D01*
X2254Y845D02*
X2301Y845D01*
X2254Y844D02*
X2301Y844D01*
X2254Y843D02*
X2301Y843D01*
X2254Y842D02*
X2301Y842D01*
X2254Y841D02*
X2301Y841D01*
X2254Y840D02*
X2301Y840D01*
X2254Y839D02*
X2301Y839D01*
X2254Y838D02*
X2301Y838D01*
X2254Y837D02*
X2301Y837D01*
X2254Y836D02*
X2301Y836D01*
X2254Y835D02*
X2301Y835D01*
X2254Y834D02*
X2301Y834D01*
X2254Y833D02*
X2301Y833D01*
X2254Y832D02*
X2301Y832D01*
X2254Y831D02*
X2301Y831D01*
X2254Y830D02*
X2301Y830D01*
X2254Y829D02*
X2301Y829D01*
X2254Y828D02*
X2301Y828D01*
X2254Y827D02*
X2301Y827D01*
X2254Y826D02*
X2301Y826D01*
X2254Y825D02*
X2301Y825D01*
X2254Y824D02*
X2301Y824D01*
X2254Y823D02*
X2301Y823D01*
X2254Y822D02*
X2301Y822D01*
X2254Y821D02*
X2301Y821D01*
X2254Y820D02*
X2301Y820D01*
X2254Y819D02*
X2301Y819D01*
X2254Y818D02*
X2301Y818D01*
X2255Y817D02*
X2300Y817D01*
X2255Y816D02*
X2300Y816D01*
X2255Y815D02*
X2300Y815D01*
X2256Y814D02*
X2300Y814D01*
X2256Y813D02*
X2299Y813D01*
X2256Y812D02*
X2299Y812D01*
X2257Y811D02*
X2298Y811D01*
X2257Y810D02*
X2298Y810D01*
X2258Y809D02*
X2297Y809D01*
X2259Y808D02*
X2296Y808D01*
X2259Y807D02*
X2296Y807D01*
X2260Y806D02*
X2295Y806D01*
X2261Y805D02*
X2294Y805D01*
X2262Y804D02*
X2293Y804D01*
X2264Y803D02*
X2292Y803D01*
X2265Y802D02*
X2290Y802D01*
X2267Y801D02*
X2288Y801D01*
X2269Y800D02*
X2287Y800D01*
X2272Y799D02*
X2284Y799D01*
D02*
G04 End of Copper1*
M02*