; NON-PLATED HOLES START AT T1
; THROUGH (PLATED) HOLES START AT T100
M48
INCH
T1C0.157480
T2C0.125984
T3C0.059055
T100C0.038000
T101C0.070866
T102C0.039370
T103C0.027559
T104C0.098425
%
T1
X003781Y018716
X016781Y011716
X016781Y021216
X003781Y011716
T2
X010281Y011216
X001781Y011216
X005781Y007216
X012781Y009216
X025059Y018716
X024281Y014716
X018781Y007216
X003781Y009216
X024281Y003216
X014781Y007216
X010281Y007216
X003781Y014716
X021504Y018716
X025781Y004716
X003781Y003216
X005781Y011216
X018781Y011216
X007781Y009216
X001781Y007216
X016781Y009216
X014781Y011216
X025781Y008216
T3
X016781Y000716
X021781Y000716
X012781Y000716
X003781Y000716
X007781Y000716
T100
X002781Y000716
X020781Y005216
X018781Y000716
X006781Y000716
X020781Y006216
X024781Y000716
X001781Y003216
X017781Y000716
X025281Y017216
X010281Y020716
X021781Y005216
X023781Y007216
X008781Y012716
X005781Y000716
X010781Y000716
X002281Y018716
X021004Y020216
X015781Y000716
X000781Y000716
X004781Y000716
X022781Y007216
X005781Y003216
X008781Y000716
X020781Y000716
X009781Y012716
X023781Y008216
X010281Y004216
X019781Y000716
X001281Y018716
X022781Y005216
X014781Y000716
X021281Y017216
X025559Y020216
X023281Y017216
X010281Y005216
X005781Y004216
X010281Y003216
X023781Y005216
X013781Y000716
X023781Y000716
X001781Y005216
X025781Y000716
X022781Y008216
X011781Y000716
X023781Y006216
X022281Y017216
X001781Y000716
X022781Y006216
X005781Y005216
X007781Y012716
X009781Y000716
X022781Y000716
X024281Y017216
X010281Y019716
X001781Y004216
T101
X019281Y015216
X011281Y015216
T102
X015281Y015216
X014781Y009216
X005781Y009216
X010281Y009216
X018781Y009216
X001781Y009216
T103
X024281Y010716
X024281Y011716
T104
X011942Y019370
X013781Y018216
X013781Y020562
T00
M30
