; NON-PLATED HOLES START AT T1
; THROUGH (PLATED) HOLES START AT T100
M48
INCH
T1C0.125984
T2C0.118110
T100C0.098425
T101C0.039370
T102C0.038000
%
T1
X005030Y018010
X001030Y018010
T2
X001029Y008010
X005029Y008010
T100
X002030Y002010
X002030Y004356
X003869Y003202
T101
X002030Y011010
X002030Y010010
X001030Y010010
X004030Y011010
X003030Y011010
X003030Y010010
X001030Y011010
X004030Y010010
T102
X002030Y013010
X003030Y006010
X000752Y003010
X001030Y014010
X002030Y006010
X001030Y013010
X002030Y015010
X002030Y012010
X005307Y003010
X001030Y012010
X004030Y016010
X001030Y016010
X002030Y016010
X003030Y015010
X003030Y014010
X001030Y015010
X004030Y014010
X004030Y006010
X003030Y013010
X004030Y012010
X003030Y012010
X004030Y015010
X003030Y016010
X005030Y006010
X002030Y014010
X004030Y013010
X001030Y006010
T00
M30
