G04 MADE WITH FRITZING*
G04 WWW.FRITZING.ORG*
G04 DOUBLE SIDED*
G04 HOLES PLATED*
G04 CONTOUR ON CENTER OF CONTOUR VECTOR*
%ASAXBY*%
%FSLAX23Y23*%
%MOIN*%
%OFA0B0*%
%SFA1.0B1.0*%
%ADD10C,0.079370*%
%ADD11C,0.078000*%
%ADD12C,0.138425*%
%ADD13C,0.048000*%
%ADD14C,0.024000*%
%LNCOPPER0*%
G90*
G70*
G54D10*
X103Y1101D03*
X203Y1101D03*
X303Y1101D03*
X403Y1101D03*
X103Y1001D03*
X203Y1001D03*
X303Y1001D03*
X403Y1001D03*
G54D11*
X403Y1201D03*
X403Y1301D03*
X403Y1401D03*
X403Y1501D03*
X403Y1601D03*
X303Y1201D03*
X303Y1301D03*
X303Y1401D03*
X303Y1501D03*
X303Y1601D03*
X203Y1201D03*
X203Y1301D03*
X203Y1401D03*
X203Y1501D03*
X203Y1601D03*
X103Y1201D03*
X103Y1301D03*
X103Y1401D03*
X103Y1501D03*
X103Y1601D03*
G54D12*
X387Y320D03*
X203Y436D03*
X203Y201D03*
G54D11*
X103Y601D03*
X203Y601D03*
X303Y601D03*
X403Y601D03*
X503Y601D03*
X75Y301D03*
X531Y301D03*
G54D13*
X102Y902D02*
X202Y902D01*
D02*
X202Y902D02*
X202Y702D01*
D02*
X102Y702D02*
X103Y642D01*
D02*
X202Y702D02*
X102Y702D01*
D02*
X103Y959D02*
X102Y902D01*
D02*
X404Y702D02*
X503Y702D01*
D02*
X503Y702D02*
X503Y642D01*
D02*
X403Y959D02*
X404Y702D01*
D02*
X503Y500D02*
X426Y380D01*
D02*
X503Y560D02*
X503Y500D01*
D02*
X346Y262D02*
X303Y201D01*
D02*
X303Y201D02*
X274Y201D01*
D02*
X103Y501D02*
X103Y560D01*
D02*
X143Y475D02*
X103Y501D01*
D02*
X444Y1601D02*
X503Y1600D01*
D02*
X503Y1600D02*
X503Y1101D01*
D02*
X503Y1101D02*
X445Y1101D01*
D02*
X103Y1560D02*
X103Y1542D01*
D02*
X344Y1501D02*
X362Y1501D01*
D02*
X103Y1360D02*
X103Y1342D01*
D02*
X162Y1401D02*
X144Y1401D01*
G54D14*
D02*
X203Y1271D02*
X203Y1231D01*
D02*
X303Y1271D02*
X303Y1231D01*
G54D13*
D02*
X162Y1601D02*
X144Y1601D01*
D02*
X103Y1043D02*
X103Y1059D01*
D02*
X103Y1260D02*
X103Y1242D01*
D02*
X303Y1542D02*
X303Y1560D01*
G54D14*
D02*
X203Y1032D02*
X203Y1070D01*
G54D13*
D02*
X203Y1542D02*
X203Y1560D01*
D02*
X403Y1043D02*
X403Y1059D01*
D02*
X362Y1401D02*
X344Y1401D01*
D02*
X244Y1501D02*
X262Y1501D01*
D02*
X103Y1160D02*
X103Y1143D01*
D02*
X262Y1401D02*
X244Y1401D01*
G54D14*
D02*
X403Y1271D02*
X403Y1231D01*
D02*
X303Y1032D02*
X303Y1070D01*
G54D13*
D02*
X262Y1601D02*
X244Y1601D01*
D02*
X144Y1501D02*
X162Y1501D01*
G04 End of Copper0*
M02*